<svg width="35" height="35" viewBox="0 0 35 35" fill="none" xmlns="http://www.w3.org/2000/svg">
<path d="M17.5 35C27.165 35 35 27.165 35 17.5C35 7.83502 27.165 0 17.5 0C7.83502 0 0 7.83502 0 17.5C0 27.165 7.83502 35 17.5 35Z" fill="white"/>
<path d="M25.0632 7.41528H9.93684C8.51233 7.41528 7.41528 8.51233 7.41528 9.93684V25.0632C7.41528 26.4862 8.51233 27.5847 9.93684 27.5847H25.0632C26.4862 27.5847 27.5847 26.4862 27.5847 25.0632V9.93684C27.5847 8.51233 26.4862 7.41528 25.0632 7.41528ZM17.5151 13.5388C19.7514 13.5388 21.5653 15.2953 21.5653 17.4623C21.5653 19.6292 19.753 21.3857 17.5151 21.3857C15.2802 21.3857 13.4664 19.6277 13.4664 17.4623C13.4664 15.2953 15.2802 13.5388 17.5151 13.5388ZM25.0632 24.4324C25.0632 24.8745 24.8745 25.0632 24.4324 25.0632H10.5661C10.1255 25.0632 9.93533 24.8745 9.93533 24.4324V15.6092L11.5062 15.9502C11.3372 16.498 11.2467 17.079 11.2467 17.6811C11.2467 21.0326 14.0534 23.7533 17.5136 23.7533C20.9753 23.7533 23.7805 21.0341 23.7805 17.6811C23.7805 17.079 23.6885 16.4995 23.521 15.9502L25.0617 15.6092V24.4324H25.0632ZM25.0632 13.0877C25.0632 13.4362 24.781 13.7184 24.4324 13.7184H21.9108C21.5623 13.7184 21.2801 13.4362 21.2801 13.0877V10.5661C21.2801 10.2175 21.5623 9.93533 21.9108 9.93533H24.4324C24.781 9.93533 25.0632 10.2175 25.0632 10.5661V13.0877Z" fill="black"/>
</svg>
