<svg width="35" height="35" viewBox="0 0 35 35" fill="none" xmlns="http://www.w3.org/2000/svg">
<path d="M33.7661 20.3797C33.9455 19.3948 34.0417 18.3881 34.0417 17.3814C34.0417 15.1491 33.6042 12.9824 32.7422 10.9471C31.9108 8.97739 30.7163 7.20905 29.198 5.69021C27.6924 4.18021 25.9076 2.97753 23.943 2.14915C21.904 1.28686 19.7425 0.849154 17.5109 0.849154C16.4608 0.849154 15.4063 0.949826 14.3824 1.1468C12.9657 0.395789 11.3871 0.00212811 9.78373 0C7.17154 0 4.71248 1.01986 2.86601 2.86699C1.95486 3.77378 1.23243 4.85226 0.740502 6.04006C0.248572 7.22787 -0.00310213 8.50145 2.8858e-05 9.78715C2.8858e-05 11.4504 0.428832 13.0875 1.22956 14.5319C1.06766 15.4686 0.980149 16.4272 0.980149 17.3814C0.980149 19.6137 1.4177 21.7804 2.27969 23.8157C3.11104 25.7854 4.30118 27.5537 5.8195 29.0726C7.33781 30.5914 9.10553 31.782 11.0745 32.6136C13.1135 33.4759 15.275 33.9136 17.5066 33.9136C18.4779 33.9136 19.4493 33.8261 20.4032 33.6554C21.869 34.4826 23.5229 34.9247 25.2163 34.9247C27.8285 34.9247 30.2875 33.9092 32.134 32.0577C33.9848 30.2106 35 27.7507 35 25.1376C35.0043 23.4743 34.5755 21.8329 33.7661 20.3797ZM17.5766 27.51C11.7046 27.51 9.07927 24.6211 9.07927 22.4588C9.07927 21.347 9.8975 20.5723 11.0264 20.5723C13.5379 20.5723 12.8904 24.1834 17.5766 24.1834C19.9787 24.1834 21.3045 22.879 21.3045 21.544C21.3045 20.743 20.9107 19.8501 19.3268 19.4605L14.1024 18.1561C9.8975 17.1013 9.13178 14.8252 9.13178 12.6892C9.13178 8.2508 13.3104 6.58313 17.2353 6.58313C20.8495 6.58313 25.1112 8.58346 25.1112 11.2447C25.1112 12.3871 24.1224 13.0481 22.9935 13.0481C20.8495 13.0481 21.2433 10.0804 16.9246 10.0804C14.7806 10.0804 13.5948 11.0521 13.5948 12.4397C13.5948 13.8272 15.2882 14.2693 16.7583 14.6063L20.6263 15.4642C24.8618 16.4097 25.9338 18.8827 25.9338 21.2113C25.9338 24.8137 23.1641 27.51 17.5766 27.51Z" fill="white"/>
</svg>
