<svg width="35" height="35" viewBox="0 0 35 35" fill="none" xmlns="http://www.w3.org/2000/svg">
<g clip-path="url(#clip0)">
<path d="M17.4183 4.7639e-05C12.7912 0.0216411 8.36097 1.87491 5.09672 5.15446C1.83248 8.43401 -5.0384e-05 12.8729 1.03897e-09 17.5C1.03898e-09 22.1413 1.84374 26.5925 5.12563 29.8744C8.40752 33.1563 12.8587 35 17.5 35C22.1413 35 26.5925 33.1563 29.8744 29.8744C33.1563 26.5925 35 22.1413 35 17.5C35 12.8588 33.1563 8.40757 29.8744 5.12568C26.5925 1.84379 22.1413 4.7639e-05 17.5 4.7639e-05C17.4728 -1.58797e-05 17.4456 -1.58797e-05 17.4183 4.7639e-05ZM24.6546 10.535C24.8004 10.5321 25.1227 10.5686 25.3327 10.7392C25.4723 10.8604 25.5612 11.0295 25.5821 11.2132C25.6054 11.3488 25.6346 11.6594 25.6113 11.9015C25.3488 14.6694 24.2083 21.3836 23.6279 24.4825C23.3829 25.795 22.9002 26.234 22.4321 26.2763C21.4171 26.3711 20.6456 25.6055 19.6613 24.9609C18.1213 23.9503 17.2506 23.3217 15.7558 22.3359C14.0277 21.1984 15.1477 20.5713 16.1321 19.5505C16.3902 19.2821 20.8673 15.209 20.9548 14.84C20.965 14.7934 20.9752 14.6213 20.8731 14.5309C20.771 14.4405 20.6194 14.4711 20.51 14.4959C20.3554 14.5309 17.8952 16.1584 13.1294 19.374C12.4294 19.8553 11.7979 20.0886 11.2306 20.074C10.6065 20.0623 9.40479 19.7225 8.51083 19.4323C7.41417 19.075 6.54354 18.8869 6.61938 18.2817C6.65875 17.9667 7.09333 17.6444 7.92167 17.3148C13.0229 15.0923 16.4238 13.6267 18.1271 12.9194C22.9863 10.8982 23.9969 10.5467 24.6546 10.535Z" fill="white"/>
</g>
<defs>
<clipPath id="clip0">
<rect width="35" height="35" fill="white"/>
</clipPath>
</defs>
</svg>
