<svg width="35" height="35" viewBox="0 0 35 35" fill="none" xmlns="http://www.w3.org/2000/svg">
<path d="M0.00702341 35L2.37302 26.306C0.814014 23.6335 -0.0050586 20.594 2.35064e-05 17.5C2.35064e-05 7.83475 7.83477 0 17.5 0C27.1653 0 35 7.83475 35 17.5C35 27.1652 27.1653 35 17.5 35C14.4074 35.005 11.3692 34.1865 8.69752 32.6287L0.00702341 35ZM11.1843 9.289C10.9583 9.30303 10.7374 9.36255 10.535 9.46399C10.3452 9.5715 10.1719 9.70589 10.0205 9.86299C9.81052 10.0607 9.69152 10.2322 9.56377 10.3985C8.91699 11.2402 8.56908 12.2735 8.57502 13.335C8.57852 14.1925 8.80252 15.0272 9.15252 15.8077C9.86827 17.3862 11.046 19.0575 12.6018 20.6062C12.9763 20.979 13.342 21.3535 13.7358 21.7017C15.6667 23.4018 17.9677 24.6278 20.4558 25.2822L21.4515 25.4345C21.7753 25.452 22.099 25.4275 22.4245 25.4117C22.9342 25.3854 23.4318 25.2474 23.8823 25.0075C24.1114 24.8894 24.3351 24.761 24.5525 24.6225C24.5525 24.6225 24.6278 24.5735 24.7713 24.465C25.0075 24.29 25.1528 24.1657 25.3488 23.961C25.494 23.8105 25.62 23.6337 25.7163 23.4325C25.8528 23.1472 25.9893 22.603 26.0453 22.1497C26.0873 21.8032 26.075 21.6142 26.0698 21.497C26.0628 21.3097 25.907 21.1155 25.7373 21.0332L24.7188 20.5765C24.7188 20.5765 23.1963 19.9132 22.267 19.4897C22.169 19.447 22.064 19.4227 21.9573 19.418C21.8375 19.4057 21.7165 19.4192 21.6024 19.4575C21.4884 19.4958 21.3838 19.5581 21.2958 19.6402V19.6367C21.287 19.6367 21.1698 19.7365 19.9045 21.2695C19.8319 21.3671 19.7319 21.4408 19.6172 21.4813C19.5025 21.5219 19.3783 21.5273 19.2605 21.497C19.1465 21.4665 19.0348 21.4279 18.9263 21.3815C18.7093 21.2905 18.634 21.2555 18.4853 21.1907L18.4765 21.1872C17.4754 20.7501 16.5484 20.1597 15.729 19.4372C15.5085 19.2447 15.3038 19.0347 15.0938 18.8317C14.4053 18.1724 13.8053 17.4265 13.3088 16.6127L13.2055 16.4465C13.1314 16.3348 13.0714 16.2143 13.027 16.0877C12.9605 15.8305 13.1338 15.624 13.1338 15.624C13.1338 15.624 13.559 15.1585 13.7568 14.9065C13.9214 14.6971 14.075 14.4792 14.217 14.2537C14.4235 13.9212 14.4883 13.58 14.3798 13.3157C13.8898 12.1187 13.3823 10.927 12.8608 9.74399C12.7575 9.50949 12.4513 9.34149 12.173 9.30824C12.0785 9.29774 11.984 9.28724 11.8895 9.28024C11.6545 9.26857 11.419 9.27091 11.1843 9.28725V9.289Z" fill="white"/>
</svg>
