<svg width="434" height="434" viewBox="0 0 434 434" fill="none" xmlns="http://www.w3.org/2000/svg">
<path d="M220.545 64.7959C220.545 64.0635 220.267 63.4971 219.71 63.0967C219.163 62.6865 218.201 62.335 216.824 62.042C215.457 61.749 214.368 61.3975 213.558 60.9873C212.757 60.5771 212.161 60.0889 211.771 59.5225C211.39 58.9561 211.199 58.2822 211.199 57.501C211.199 56.2021 211.746 55.1035 212.84 54.2051C213.943 53.3066 215.35 52.8574 217.059 52.8574C218.855 52.8574 220.311 53.3213 221.424 54.249C222.547 55.1768 223.108 56.3633 223.108 57.8086H220.384C220.384 57.0664 220.066 56.4268 219.432 55.8896C218.807 55.3525 218.016 55.084 217.059 55.084C216.072 55.084 215.301 55.2988 214.744 55.7285C214.188 56.1582 213.909 56.7197 213.909 57.4131C213.909 58.0674 214.168 58.5605 214.686 58.8926C215.203 59.2246 216.136 59.542 217.483 59.8447C218.841 60.1475 219.939 60.5088 220.779 60.9287C221.619 61.3486 222.239 61.8564 222.64 62.4521C223.05 63.0381 223.255 63.7559 223.255 64.6055C223.255 66.0215 222.688 67.1592 221.556 68.0186C220.423 68.8682 218.953 69.293 217.146 69.293C215.877 69.293 214.754 69.0684 213.777 68.6191C212.801 68.1699 212.034 67.5449 211.478 66.7441C210.931 65.9336 210.657 65.0596 210.657 64.1221H213.367C213.416 65.0303 213.777 65.7529 214.451 66.29C215.135 66.8174 216.033 67.0811 217.146 67.0811C218.172 67.0811 218.992 66.876 219.607 66.4658C220.232 66.0459 220.545 65.4893 220.545 64.7959Z" fill="black"/>
<path d="M232.422 50.1415L232.087 53.9648L235.035 54.2226L234.852 56.3094L231.904 56.0515L231.048 65.8432C230.993 66.4756 231.082 66.9637 231.317 67.3078C231.552 67.6421 231.986 67.8369 232.618 67.8922C232.93 67.9194 233.363 67.8985 233.918 67.8294L233.726 70.0183C232.999 70.1508 232.3 70.1876 231.629 70.1289C230.422 70.0233 229.545 69.5789 228.996 68.7957C228.447 68.0124 228.231 66.9495 228.348 65.607L229.205 55.8153L226.33 55.5638L226.513 53.4771L229.387 53.7286L229.722 49.9053L232.422 50.1415Z" fill="black"/>
<path d="M247.368 72.1932C247.268 71.8583 247.24 71.2881 247.283 70.4825C245.815 71.5525 244.22 71.9357 242.499 71.6322C240.96 71.3608 239.772 70.7051 238.934 69.6648C238.107 68.6167 237.812 67.4242 238.047 66.0874C238.334 64.4621 239.172 63.3108 240.56 62.6334C241.96 61.9482 243.781 61.8031 246.022 62.1982L248.618 62.6561L248.835 61.4299C248.999 60.497 248.851 59.7073 248.39 59.0608C247.93 58.4046 247.157 57.9807 246.07 57.7891C245.118 57.6212 244.278 57.7209 243.548 58.0881C242.819 58.4554 242.394 58.9804 242.274 59.6632L239.591 59.1901C239.728 58.4111 240.135 57.7093 240.81 57.0847C241.497 56.4521 242.349 56.0073 243.366 55.7504C244.392 55.4951 245.473 55.4675 246.608 55.6676C248.406 55.9847 249.736 56.6852 250.596 57.7689C251.457 58.8431 251.768 60.1722 251.529 61.7562L250.262 68.9403C250.009 70.3733 249.991 71.5451 250.207 72.4559L250.167 72.6867L247.368 72.1932ZM243.298 69.3783C244.135 69.5258 244.966 69.4493 245.793 69.1488C246.619 68.8483 247.262 68.3815 247.72 67.7484L248.285 64.5459L246.193 64.177C242.923 63.6005 241.12 64.2691 240.782 66.1829C240.635 67.0196 240.798 67.7228 241.273 68.2924C241.748 68.862 242.423 69.224 243.298 69.3783Z" fill="black"/>
<path d="M264.266 62.6767C263.887 62.5045 263.467 62.3565 263.005 62.2326C261.288 61.7726 259.927 62.1915 258.922 63.4893L256.01 74.356L253.393 73.6546L257.495 58.345L260.042 59.0275L259.61 60.8075C260.835 59.6697 262.235 59.3119 263.811 59.734C264.32 59.8705 264.689 60.0401 264.918 60.243L264.266 62.6767Z" fill="black"/>
<path d="M275.082 59.8185L273.77 63.4249L276.55 64.4369L275.834 66.4053L273.053 65.3933L269.692 74.6296C269.475 75.2261 269.435 75.7209 269.572 76.1139C269.713 76.4977 270.082 76.7982 270.678 77.0153C270.972 77.1222 271.396 77.2141 271.95 77.291L271.198 79.3558C270.462 79.2955 269.777 79.1501 269.143 78.9196C268.006 78.5055 267.273 77.849 266.945 76.9504C266.618 76.0517 266.684 74.9692 267.145 73.7028L270.507 64.4664L267.795 63.4795L268.512 61.5111L271.223 62.498L272.536 58.8916L275.082 59.8185Z" fill="black"/>
<path d="M296.112 87.0636C296.478 86.4293 296.521 85.7996 296.239 85.1745C295.97 84.5459 295.313 83.7605 294.267 82.8183C293.229 81.881 292.462 81.0321 291.965 80.2716C291.477 79.516 291.205 78.7953 291.15 78.1094C291.103 77.4285 291.275 76.7497 291.666 76.0731C292.316 74.9483 293.338 74.2703 294.735 74.0391C296.14 73.8128 297.582 74.1269 299.062 74.9814C300.618 75.8798 301.647 77.0091 302.147 78.3692C302.656 79.7341 302.549 81.0425 301.826 82.2941L299.466 80.9318C299.837 80.2891 299.882 79.5764 299.601 78.7939C299.329 78.0163 298.778 77.3882 297.949 76.9097C297.095 76.4165 296.319 76.2168 295.622 76.3106C294.925 76.4044 294.404 76.7515 294.057 77.352C293.73 77.9186 293.707 78.4751 293.99 79.0215C294.272 79.5678 294.921 80.309 295.936 81.245C296.961 82.1859 297.731 83.0481 298.249 83.8317C298.766 84.6153 299.049 85.3651 299.098 86.0812C299.16 86.7937 298.979 87.5179 298.554 88.2536C297.846 89.48 296.787 90.182 295.376 90.3599C293.97 90.5292 292.485 90.1623 290.921 89.2589C289.821 88.6242 288.961 87.8681 288.34 86.9908C287.719 86.1135 287.367 85.1889 287.286 84.2171C287.217 83.2417 287.417 82.3481 287.886 81.5362L290.233 82.8912C289.821 83.7021 289.773 84.5086 290.088 85.3107C290.416 86.1092 291.062 86.7867 292.027 87.3434C292.915 87.8561 293.728 88.0886 294.465 88.041C295.217 87.9899 295.766 87.6641 296.112 87.0636Z" fill="black"/>
<path d="M313.785 80.2071L311.583 83.3509L314.007 85.0481L312.806 86.764L310.382 85.0668L304.744 93.1183C304.38 93.6383 304.214 94.1059 304.245 94.5211C304.282 94.9283 304.56 95.314 305.08 95.6781C305.336 95.8573 305.721 96.0558 306.237 96.2735L304.976 98.0734C304.28 97.8245 303.656 97.5068 303.104 97.1203C302.112 96.4257 301.575 95.602 301.491 94.6491C301.407 93.6963 301.751 92.6679 302.524 91.564L308.162 83.5124L305.798 81.8572L307 80.1413L309.364 81.7965L311.565 78.6527L313.785 80.2071Z" fill="black"/>
<path d="M315.703 106.778C315.784 106.438 316.045 105.93 316.485 105.254C314.678 105.446 313.106 104.981 311.767 103.857C310.57 102.853 309.868 101.691 309.663 100.371C309.471 99.0498 309.811 97.8694 310.684 96.8296C311.745 95.5653 313.046 94.987 314.587 95.0948C316.142 95.2013 317.791 95.9859 319.534 97.4485L321.554 99.1434L322.355 98.1895C322.964 97.4639 323.23 96.7058 323.154 95.9153C323.084 95.1174 322.626 94.3637 321.781 93.6544C321.04 93.033 320.263 92.699 319.448 92.6524C318.632 92.6059 318.002 92.8482 317.556 93.3794L315.469 91.628C315.978 91.0221 316.681 90.6175 317.578 90.4142C318.489 90.2097 319.449 90.2505 320.458 90.5365C321.475 90.8288 322.425 91.3453 323.307 92.086C324.706 93.2598 325.507 94.531 325.71 95.8996C325.919 97.2607 325.524 98.5673 324.525 99.8193L319.836 105.407C318.9 106.522 318.299 107.528 318.031 108.425L317.88 108.604L315.703 106.778ZM313.586 102.305C314.236 102.851 314.995 103.2 315.861 103.353C316.727 103.506 317.517 103.423 318.231 103.105L320.321 100.613L318.694 99.2481C316.15 97.1138 314.254 96.791 313.005 98.2797C312.459 98.9306 312.249 99.6213 312.375 100.352C312.501 101.083 312.905 101.734 313.586 102.305Z" fill="black"/>
<path d="M335.095 106.985C334.853 106.647 334.563 106.308 334.225 105.97C332.968 104.713 331.58 104.395 330.061 105.017L322.106 112.972L320.19 111.056L331.397 99.8482L333.261 101.713L331.998 103.038C333.627 102.666 335.019 103.056 336.172 104.209C336.545 104.582 336.78 104.913 336.876 105.203L335.095 106.985Z" fill="black"/>
<path d="M345.892 109.918L342.952 112.385L344.854 114.652L343.249 115.998L341.347 113.731L333.817 120.049C333.331 120.457 333.049 120.866 332.972 121.275C332.902 121.678 333.071 122.123 333.479 122.609C333.68 122.848 334.001 123.14 334.442 123.483L332.759 124.896C332.151 124.475 331.631 124.007 331.198 123.491C330.419 122.563 330.113 121.628 330.279 120.686C330.444 119.744 331.043 118.84 332.076 117.973L339.605 111.655L337.75 109.445L339.355 108.098L341.21 110.309L344.15 107.842L345.892 109.918Z" fill="black"/>
<path d="M350.481 144.028C351.116 143.662 351.467 143.137 351.536 142.455C351.617 141.776 351.441 140.768 351.006 139.429C350.576 138.098 350.336 136.979 350.286 136.072C350.241 135.174 350.366 134.414 350.661 133.792C350.961 133.179 351.45 132.677 352.126 132.287C353.251 131.637 354.476 131.562 355.801 132.06C357.131 132.566 358.223 133.559 359.077 135.039C359.976 136.596 360.302 138.088 360.055 139.516C359.813 140.952 359.066 142.032 357.814 142.754L356.452 140.395C357.095 140.024 357.49 139.429 357.638 138.611C357.791 137.801 357.628 136.981 357.149 136.153C356.656 135.298 356.084 134.738 355.434 134.471C354.783 134.203 354.158 134.243 353.557 134.59C352.991 134.917 352.693 135.388 352.664 136.002C352.635 136.616 352.827 137.582 353.239 138.901C353.655 140.228 353.891 141.36 353.948 142.297C354.004 143.235 353.874 144.025 353.559 144.67C353.256 145.318 352.737 145.855 352.001 146.28C350.775 146.988 349.507 147.066 348.196 146.515C346.894 145.958 345.791 144.898 344.888 143.333C344.253 142.234 343.886 141.149 343.787 140.079C343.687 139.008 343.845 138.032 344.261 137.149C344.689 136.271 345.309 135.597 346.121 135.128L347.476 137.475C346.714 137.971 346.269 138.645 346.141 139.498C346.026 140.353 346.247 141.263 346.803 142.227C347.316 143.115 347.904 143.723 348.567 144.051C349.243 144.382 349.881 144.375 350.481 144.028Z" fill="black"/>
<path d="M369.214 146.926L365.736 148.548L366.987 151.23L365.088 152.115L363.838 149.434L354.929 153.587C354.354 153.856 353.976 154.177 353.796 154.553C353.624 154.924 353.672 155.397 353.94 155.972C354.072 156.255 354.307 156.62 354.644 157.066L352.653 157.995C352.175 157.431 351.793 156.844 351.508 156.233C350.997 155.136 350.943 154.154 351.346 153.286C351.75 152.419 352.563 151.701 353.784 151.131L362.692 146.977L361.473 144.362L363.371 143.477L364.591 146.092L368.069 144.47L369.214 146.926Z" fill="black"/>
<path d="M357.59 170.896C357.831 170.642 358.31 170.333 359.029 169.967C357.369 169.231 356.24 168.041 355.642 166.399C355.107 164.93 355.081 163.573 355.563 162.328C356.057 161.088 356.942 160.236 358.218 159.771C359.769 159.207 361.185 159.357 362.466 160.221C363.759 161.09 364.795 162.594 365.573 164.733L366.475 167.21L367.645 166.784C368.535 166.46 369.145 165.937 369.474 165.214C369.813 164.489 369.793 163.607 369.416 162.57C369.085 161.662 368.579 160.983 367.896 160.536C367.213 160.088 366.546 159.982 365.895 160.22L364.963 157.659C365.706 157.389 366.517 157.39 367.396 157.662C368.287 157.941 369.098 158.456 369.829 159.208C370.564 159.97 371.128 160.892 371.522 161.975C372.147 163.691 372.205 165.192 371.696 166.479C371.197 167.762 370.201 168.696 368.709 169.281L361.855 171.776C360.487 172.274 359.463 172.844 358.783 173.486L358.562 173.566L357.59 170.896ZM357.993 165.964C358.284 166.762 358.766 167.444 359.439 168.01C360.113 168.575 360.838 168.898 361.616 168.979L364.672 167.867L363.945 165.871C362.81 162.751 361.329 161.523 359.503 162.188C358.704 162.478 358.177 162.971 357.921 163.667C357.665 164.363 357.689 165.129 357.993 165.964Z" fill="black"/>
<path d="M374.281 180.772C374.241 180.358 374.159 179.92 374.035 179.457C373.575 177.741 372.532 176.772 370.905 176.55L360.039 179.462L359.337 176.844L374.647 172.742L375.329 175.289L373.572 175.805C375.17 176.297 376.18 177.331 376.602 178.906C376.738 179.416 376.776 179.82 376.715 180.12L374.281 180.772Z" fill="black"/>
<path d="M382.164 188.71L378.385 189.376L378.899 192.291L376.836 192.654L376.322 189.74L366.642 191.447C366.017 191.557 365.569 191.77 365.297 192.086C365.035 192.4 364.959 192.869 365.069 193.494C365.124 193.802 365.256 194.215 365.466 194.733L363.302 195.115C362.986 194.447 362.77 193.781 362.653 193.117C362.442 191.925 362.645 190.962 363.259 190.229C363.873 189.496 364.844 189.012 366.171 188.778L375.851 187.071L375.35 184.23L377.413 183.866L377.914 186.708L381.694 186.041L382.164 188.71Z" fill="black"/>
<path d="M369.204 220.545C369.937 220.545 370.503 220.267 370.903 219.71C371.313 219.163 371.665 218.201 371.958 216.824C372.251 215.457 372.603 214.368 373.013 213.558C373.423 212.757 373.911 212.161 374.478 211.771C375.044 211.39 375.718 211.199 376.499 211.199C377.798 211.199 378.896 211.746 379.795 212.84C380.693 213.943 381.143 215.35 381.143 217.059C381.143 218.855 380.679 220.311 379.751 221.424C378.823 222.547 377.637 223.108 376.191 223.108V220.384C376.934 220.384 377.573 220.066 378.11 219.432C378.647 218.807 378.916 218.016 378.916 217.059C378.916 216.072 378.701 215.301 378.271 214.744C377.842 214.188 377.28 213.909 376.587 213.909C375.933 213.909 375.439 214.168 375.107 214.686C374.775 215.203 374.458 216.136 374.155 217.483C373.853 218.841 373.491 219.939 373.071 220.779C372.651 221.619 372.144 222.239 371.548 222.64C370.962 223.05 370.244 223.255 369.395 223.255C367.979 223.255 366.841 222.688 365.981 221.556C365.132 220.423 364.707 218.953 364.707 217.146C364.707 215.877 364.932 214.754 365.381 213.777C365.83 212.801 366.455 212.034 367.256 211.478C368.066 210.931 368.94 210.657 369.878 210.657V213.367C368.97 213.416 368.247 213.777 367.71 214.451C367.183 215.135 366.919 216.033 366.919 217.146C366.919 218.172 367.124 218.992 367.534 219.607C367.954 220.232 368.511 220.545 369.204 220.545Z" fill="black"/>
<path d="M383.859 232.422L380.035 232.087L379.777 235.035L377.691 234.852L377.948 231.905L368.157 231.048C367.524 230.993 367.036 231.082 366.692 231.317C366.358 231.552 366.163 231.986 366.108 232.619C366.081 232.93 366.102 233.363 366.171 233.918L363.982 233.727C363.849 232.999 363.812 232.3 363.871 231.629C363.977 230.422 364.421 229.545 365.204 228.996C365.988 228.447 367.05 228.231 368.393 228.348L378.185 229.205L378.436 226.33L380.523 226.513L380.271 229.388L384.095 229.722L383.859 232.422Z" fill="black"/>
<path d="M361.807 247.368C362.142 247.268 362.712 247.24 363.517 247.283C362.448 245.815 362.064 244.22 362.368 242.499C362.639 240.96 363.295 239.772 364.335 238.934C365.383 238.107 366.576 237.812 367.913 238.047C369.538 238.334 370.689 239.172 371.367 240.56C372.052 241.96 372.197 243.781 371.802 246.022L371.344 248.618L372.57 248.834C373.503 248.999 374.293 248.851 374.939 248.389C375.595 247.93 376.019 247.157 376.211 246.07C376.379 245.118 376.279 244.277 375.912 243.548C375.545 242.819 375.02 242.394 374.337 242.274L374.81 239.591C375.589 239.728 376.291 240.135 376.915 240.81C377.548 241.497 377.993 242.348 378.25 243.366C378.505 244.392 378.532 245.473 378.332 246.608C378.015 248.406 377.315 249.736 376.231 250.596C375.157 251.457 373.828 251.768 372.244 251.529L365.06 250.262C363.627 250.009 362.455 249.991 361.544 250.207L361.313 250.167L361.807 247.368ZM364.622 243.298C364.474 244.135 364.551 244.966 364.851 245.793C365.152 246.619 365.618 247.262 366.252 247.72L369.454 248.285L369.823 246.193C370.4 242.923 369.731 241.12 367.817 240.782C366.98 240.635 366.277 240.798 365.708 241.273C365.138 241.748 364.776 242.423 364.622 243.298Z" fill="black"/>
<path d="M371.323 264.266C371.495 263.887 371.643 263.467 371.767 263.005C372.227 261.288 371.808 259.927 370.511 258.922L359.644 256.01L360.345 253.393L375.655 257.495L374.972 260.042L373.192 259.61C374.33 260.835 374.688 262.235 374.266 263.811C374.129 264.32 373.96 264.689 373.757 264.918L371.323 264.266Z" fill="black"/>
<path d="M374.182 275.082L370.575 273.77L369.563 276.55L367.595 275.834L368.607 273.053L359.37 269.692C358.774 269.474 358.279 269.435 357.886 269.572C357.502 269.713 357.202 270.082 356.985 270.678C356.878 270.972 356.786 271.396 356.709 271.95L354.644 271.198C354.705 270.462 354.85 269.777 355.08 269.143C355.495 268.006 356.151 267.273 357.05 266.945C357.948 266.617 359.031 266.684 360.297 267.145L369.534 270.507L370.521 267.795L372.489 268.512L371.502 271.223L375.108 272.536L374.182 275.082Z" fill="black"/>
<path d="M346.936 296.112C347.571 296.478 348.2 296.521 348.826 296.239C349.454 295.97 350.24 295.313 351.182 294.267C352.119 293.229 352.968 292.462 353.728 291.965C354.484 291.477 355.205 291.205 355.891 291.15C356.572 291.103 357.25 291.275 357.927 291.666C359.052 292.315 359.73 293.338 359.961 294.735C360.187 296.14 359.873 297.582 359.019 299.062C358.12 300.618 356.991 301.646 355.631 302.147C354.266 302.655 352.958 302.549 351.706 301.826L353.068 299.466C353.711 299.837 354.424 299.882 355.206 299.601C355.984 299.328 356.612 298.778 357.09 297.949C357.584 297.095 357.783 296.319 357.689 295.622C357.596 294.925 357.249 294.404 356.648 294.057C356.081 293.73 355.525 293.707 354.979 293.989C354.432 294.272 353.691 294.921 352.755 295.936C351.814 296.961 350.952 297.731 350.168 298.249C349.385 298.766 348.635 299.049 347.919 299.098C347.206 299.16 346.482 298.979 345.746 298.554C344.52 297.846 343.818 296.787 343.64 295.376C343.471 293.97 343.838 292.485 344.741 290.92C345.376 289.821 346.132 288.961 347.009 288.34C347.887 287.719 348.811 287.367 349.783 287.285C350.758 287.217 351.652 287.417 352.464 287.886L351.109 290.233C350.298 289.821 349.491 289.773 348.689 290.088C347.891 290.416 347.213 291.062 346.657 292.026C346.144 292.914 345.911 293.727 345.959 294.465C346.01 295.217 346.336 295.765 346.936 296.112Z" fill="black"/>
<path d="M353.793 313.785L350.649 311.584L348.952 314.007L347.236 312.806L348.933 310.382L340.882 304.744C340.362 304.38 339.894 304.214 339.479 304.245C339.072 304.282 338.686 304.56 338.322 305.08C338.143 305.336 337.944 305.722 337.727 306.237L335.927 304.976C336.176 304.28 336.493 303.656 336.88 303.105C337.574 302.113 338.398 301.575 339.351 301.491C340.304 301.407 341.332 301.751 342.436 302.524L350.488 308.162L352.143 305.798L353.859 307L352.204 309.364L355.347 311.565L353.793 313.785Z" fill="black"/>
<path d="M327.222 315.703C327.562 315.784 328.07 316.045 328.746 316.485C328.554 314.678 329.019 313.106 330.143 311.767C331.147 310.57 332.309 309.868 333.629 309.663C334.95 309.471 336.131 309.811 337.17 310.684C338.435 311.745 339.013 313.046 338.905 314.587C338.799 316.142 338.014 317.791 336.551 319.534L334.857 321.554L335.81 322.355C336.536 322.963 337.294 323.23 338.085 323.154C338.883 323.084 339.636 322.626 340.346 321.781C340.967 321.04 341.301 320.263 341.348 319.448C341.394 318.632 341.152 318.002 340.621 317.556L342.372 315.469C342.978 315.978 343.383 316.68 343.586 317.578C343.79 318.489 343.75 319.449 343.464 320.458C343.171 321.475 342.655 322.425 341.914 323.307C340.74 324.706 339.469 325.507 338.1 325.71C336.739 325.919 335.433 325.524 334.181 324.525L328.593 319.836C327.478 318.9 326.472 318.299 325.575 318.03L325.396 317.88L327.222 315.703ZM331.695 313.586C331.149 314.236 330.8 314.995 330.647 315.861C330.494 316.727 330.577 317.517 330.895 318.23L333.387 320.321L334.752 318.694C336.886 316.15 337.209 314.254 335.72 313.005C335.069 312.459 334.379 312.249 333.648 312.375C332.917 312.501 332.266 312.905 331.695 313.586Z" fill="black"/>
<path d="M327.015 335.095C327.354 334.853 327.692 334.563 328.03 334.225C329.287 332.968 329.605 331.58 328.983 330.061L321.028 322.106L322.944 320.19L334.152 331.397L332.287 333.262L330.962 331.998C331.334 333.628 330.944 335.019 329.791 336.172C329.418 336.545 329.087 336.78 328.797 336.877L327.015 335.095Z" fill="black"/>
<path d="M324.082 345.892L321.615 342.952L319.348 344.854L318.002 343.249L320.269 341.347L313.951 333.817C313.543 333.331 313.134 333.049 312.725 332.972C312.322 332.902 311.877 333.071 311.391 333.479C311.152 333.68 310.86 334.001 310.517 334.442L309.104 332.759C309.525 332.151 309.993 331.631 310.509 331.198C311.437 330.419 312.372 330.113 313.314 330.279C314.256 330.444 315.16 331.043 316.027 332.075L322.345 339.605L324.555 337.75L325.902 339.355L323.691 341.21L326.158 344.15L324.082 345.892Z" fill="black"/>
<path d="M289.972 350.481C290.338 351.116 290.862 351.467 291.545 351.535C292.223 351.617 293.232 351.441 294.571 351.006C295.902 350.576 297.02 350.336 297.927 350.286C298.826 350.241 299.586 350.366 300.208 350.661C300.821 350.961 301.322 351.449 301.713 352.126C302.362 353.251 302.438 354.476 301.94 355.801C301.434 357.131 300.44 358.223 298.96 359.077C297.404 359.976 295.912 360.301 294.484 360.055C293.048 359.813 291.968 359.066 291.246 357.814L293.605 356.452C293.976 357.095 294.571 357.49 295.389 357.638C296.199 357.79 297.018 357.627 297.847 357.149C298.701 356.656 299.262 356.084 299.529 355.434C299.797 354.783 299.757 354.158 299.41 353.557C299.083 352.991 298.612 352.693 297.998 352.664C297.384 352.635 296.417 352.827 295.099 353.238C293.772 353.655 292.64 353.891 291.703 353.948C290.765 354.004 289.974 353.874 289.33 353.558C288.682 353.256 288.145 352.737 287.72 352.001C287.012 350.775 286.934 349.506 287.485 348.196C288.042 346.894 289.102 345.791 290.667 344.888C291.766 344.253 292.851 343.886 293.921 343.787C294.992 343.687 295.968 343.845 296.85 344.26C297.729 344.689 298.403 345.309 298.872 346.121L296.525 347.476C296.029 346.714 295.354 346.269 294.502 346.14C293.647 346.026 292.737 346.246 291.773 346.803C290.885 347.316 290.277 347.904 289.949 348.566C289.618 349.243 289.625 349.881 289.972 350.481Z" fill="black"/>
<path d="M287.074 369.215L285.452 365.736L282.77 366.987L281.885 365.088L284.567 363.838L280.413 354.93C280.144 354.354 279.823 353.976 279.447 353.796C279.076 353.624 278.603 353.672 278.028 353.94C277.745 354.073 277.38 354.307 276.934 354.645L276.005 352.653C276.569 352.175 277.156 351.793 277.767 351.509C278.864 350.997 279.847 350.943 280.714 351.347C281.581 351.75 282.299 352.563 282.869 353.784L287.023 362.693L289.638 361.473L290.523 363.371L287.908 364.591L289.53 368.069L287.074 369.215Z" fill="black"/>
<path d="M263.104 357.59C263.358 357.831 263.667 358.31 264.033 359.029C264.769 357.369 265.959 356.24 267.601 355.642C269.069 355.107 270.426 355.081 271.672 355.563C272.912 356.057 273.764 356.942 274.229 358.218C274.793 359.769 274.643 361.185 273.779 362.466C272.91 363.759 271.406 364.795 269.267 365.573L266.79 366.475L267.215 367.645C267.539 368.535 268.063 369.145 268.785 369.474C269.511 369.813 270.393 369.793 271.43 369.416C272.338 369.085 273.016 368.579 273.464 367.896C273.912 367.213 274.017 366.546 273.78 365.895L276.341 364.963C276.611 365.706 276.61 366.517 276.338 367.396C276.059 368.287 275.544 369.098 274.791 369.829C274.03 370.563 273.108 371.128 272.025 371.522C270.309 372.146 268.807 372.205 267.521 371.696C266.237 371.197 265.304 370.201 264.719 368.709L262.224 361.854C261.726 360.487 261.156 359.463 260.514 358.783L260.433 358.562L263.104 357.59ZM268.036 357.993C267.238 358.284 266.556 358.766 265.99 359.439C265.425 360.113 265.102 360.838 265.021 361.616L266.133 364.672L268.129 363.945C271.249 362.81 272.477 361.329 271.812 359.503C271.522 358.704 271.029 358.177 270.333 357.921C269.637 357.665 268.871 357.689 268.036 357.993Z" fill="black"/>
<path d="M253.228 374.281C253.642 374.241 254.08 374.159 254.542 374.035C256.259 373.575 257.228 372.532 257.45 370.905L254.538 360.039L257.156 359.337L261.258 374.647L258.711 375.329L258.195 373.572C257.703 375.17 256.669 376.18 255.094 376.602C254.584 376.738 254.18 376.776 253.88 376.715L253.228 374.281Z" fill="black"/>
<path d="M245.29 382.164L244.624 378.385L241.709 378.899L241.346 376.836L244.26 376.322L242.553 366.642C242.443 366.017 242.23 365.569 241.914 365.297C241.6 365.035 241.131 364.959 240.506 365.07C240.198 365.124 239.785 365.256 239.267 365.466L238.885 363.303C239.553 362.986 240.219 362.77 240.883 362.653C242.075 362.443 243.038 362.645 243.771 363.259C244.504 363.874 244.988 364.844 245.222 366.172L246.929 375.851L249.77 375.35L250.134 377.413L247.292 377.914L247.959 381.694L245.29 382.164Z" fill="black"/>
<path d="M213.455 369.204C213.455 369.937 213.733 370.503 214.29 370.903C214.837 371.313 215.799 371.665 217.176 371.958C218.543 372.251 219.632 372.603 220.442 373.013C221.243 373.423 221.839 373.911 222.229 374.478C222.61 375.044 222.801 375.718 222.801 376.499C222.801 377.798 222.254 378.896 221.16 379.795C220.057 380.693 218.65 381.143 216.941 381.143C215.145 381.143 213.689 380.679 212.576 379.751C211.453 378.823 210.892 377.637 210.892 376.191H213.616C213.616 376.934 213.934 377.573 214.568 378.11C215.193 378.647 215.984 378.916 216.941 378.916C217.928 378.916 218.699 378.701 219.256 378.271C219.812 377.842 220.091 377.28 220.091 376.587C220.091 375.933 219.832 375.439 219.314 375.107C218.797 374.775 217.864 374.458 216.517 374.155C215.159 373.853 214.061 373.491 213.221 373.071C212.381 372.651 211.761 372.144 211.36 371.548C210.95 370.962 210.745 370.244 210.745 369.395C210.745 367.979 211.312 366.841 212.444 365.981C213.577 365.132 215.047 364.707 216.854 364.707C218.123 364.707 219.246 364.932 220.223 365.381C221.199 365.83 221.966 366.455 222.522 367.256C223.069 368.066 223.343 368.94 223.343 369.878H220.633C220.584 368.97 220.223 368.247 219.549 367.71C218.865 367.183 217.967 366.919 216.854 366.919C215.828 366.919 215.008 367.124 214.393 367.534C213.768 367.954 213.455 368.511 213.455 369.204Z" fill="black"/>
<path d="M201.578 383.859L201.913 380.035L198.965 379.777L199.148 377.691L202.096 377.948L202.952 368.157C203.007 367.524 202.918 367.036 202.683 366.692C202.448 366.358 202.014 366.163 201.382 366.108C201.07 366.081 200.637 366.102 200.082 366.171L200.274 363.982C201.001 363.849 201.7 363.812 202.371 363.871C203.578 363.977 204.455 364.421 205.004 365.204C205.553 365.988 205.769 367.05 205.652 368.393L204.795 378.185L207.67 378.436L207.487 380.523L204.613 380.271L204.278 384.095L201.578 383.859Z" fill="black"/>
<path d="M186.632 361.807C186.732 362.142 186.76 362.712 186.717 363.517C188.185 362.448 189.78 362.064 191.501 362.368C193.04 362.639 194.228 363.295 195.066 364.335C195.893 365.383 196.188 366.576 195.953 367.913C195.666 369.538 194.828 370.689 193.44 371.367C192.04 372.052 190.219 372.197 187.978 371.802L185.382 371.344L185.165 372.57C185.001 373.503 185.149 374.293 185.61 374.939C186.07 375.595 186.843 376.019 187.93 376.211C188.882 376.379 189.722 376.279 190.452 375.912C191.181 375.545 191.606 375.02 191.726 374.337L194.409 374.81C194.272 375.589 193.865 376.291 193.19 376.915C192.503 377.548 191.651 377.993 190.634 378.25C189.608 378.505 188.527 378.533 187.392 378.332C185.594 378.015 184.264 377.315 183.404 376.231C182.543 375.157 182.232 373.828 182.471 372.244L183.738 365.06C183.991 363.627 184.009 362.455 183.793 361.544L183.833 361.313L186.632 361.807ZM190.702 364.622C189.865 364.474 189.034 364.551 188.207 364.851C187.381 365.152 186.738 365.619 186.28 366.252L185.715 369.454L187.807 369.823C191.077 370.4 192.88 369.731 193.218 367.817C193.365 366.98 193.202 366.277 192.727 365.708C192.252 365.138 191.577 364.776 190.702 364.622Z" fill="black"/>
<path d="M169.734 371.323C170.113 371.496 170.533 371.644 170.995 371.767C172.712 372.227 174.073 371.809 175.078 370.511L177.99 359.644L180.607 360.345L176.505 375.655L173.958 374.973L174.39 373.193C173.165 374.33 171.765 374.688 170.189 374.266C169.68 374.13 169.311 373.96 169.082 373.757L169.734 371.323Z" fill="black"/>
<path d="M158.918 374.182L160.23 370.575L157.45 369.563L158.166 367.595L160.947 368.607L164.308 359.37C164.525 358.774 164.565 358.279 164.428 357.886C164.287 357.502 163.918 357.202 163.322 356.985C163.028 356.878 162.604 356.786 162.05 356.709L162.802 354.644C163.538 354.705 164.223 354.85 164.857 355.08C165.994 355.495 166.727 356.151 167.055 357.05C167.382 357.948 167.316 359.031 166.855 360.297L163.493 369.534L166.205 370.521L165.488 372.489L162.777 371.502L161.464 375.108L158.918 374.182Z" fill="black"/>
<path d="M137.888 346.936C137.522 347.571 137.479 348.2 137.761 348.825C138.03 349.454 138.687 350.24 139.733 351.182C140.771 352.119 141.538 352.968 142.035 353.728C142.523 354.484 142.795 355.205 142.85 355.891C142.897 356.571 142.725 357.25 142.334 357.927C141.684 359.052 140.662 359.73 139.265 359.961C137.86 360.187 136.418 359.873 134.938 359.019C133.382 358.12 132.353 356.991 131.853 355.631C131.344 354.266 131.451 352.958 132.174 351.706L134.534 353.068C134.163 353.711 134.118 354.424 134.399 355.206C134.671 355.984 135.222 356.612 136.051 357.09C136.905 357.583 137.681 357.783 138.378 357.689C139.075 357.596 139.596 357.248 139.943 356.648C140.27 356.081 140.293 355.525 140.01 354.979C139.728 354.432 139.079 353.691 138.064 352.755C137.039 351.814 136.269 350.952 135.751 350.168C135.234 349.385 134.951 348.635 134.902 347.919C134.84 347.206 135.021 346.482 135.446 345.746C136.154 344.52 137.213 343.818 138.624 343.64C140.03 343.471 141.515 343.838 143.079 344.741C144.179 345.376 145.039 346.132 145.66 347.009C146.281 347.886 146.633 348.811 146.714 349.783C146.783 350.758 146.583 351.652 146.114 352.464L143.767 351.109C144.179 350.298 144.227 349.491 143.912 348.689C143.584 347.891 142.938 347.213 141.973 346.657C141.085 346.144 140.272 345.911 139.535 345.959C138.783 346.01 138.234 346.336 137.888 346.936Z" fill="black"/>
<path d="M120.215 353.793L122.417 350.649L119.993 348.952L121.194 347.236L123.618 348.933L129.256 340.882C129.62 340.362 129.786 339.894 129.755 339.479C129.718 339.072 129.44 338.686 128.92 338.322C128.664 338.143 128.279 337.944 127.763 337.727L129.024 335.927C129.72 336.176 130.344 336.493 130.896 336.88C131.888 337.574 132.425 338.398 132.509 339.351C132.593 340.304 132.249 341.332 131.476 342.436L125.838 350.488L128.202 352.143L127 353.859L124.636 352.203L122.435 355.347L120.215 353.793Z" fill="black"/>
<path d="M118.297 327.222C118.216 327.562 117.955 328.07 117.515 328.747C119.322 328.554 120.894 329.019 122.233 330.143C123.43 331.147 124.132 332.309 124.337 333.629C124.529 334.95 124.189 336.131 123.316 337.171C122.255 338.435 120.954 339.013 119.413 338.905C117.858 338.799 116.209 338.014 114.466 336.552L112.446 334.857L111.645 335.811C111.036 336.536 110.77 337.294 110.846 338.085C110.916 338.883 111.374 339.636 112.219 340.346C112.96 340.967 113.737 341.301 114.552 341.348C115.368 341.394 115.998 341.152 116.444 340.621L118.531 342.372C118.022 342.978 117.319 343.383 116.422 343.586C115.511 343.79 114.551 343.75 113.542 343.464C112.525 343.171 111.575 342.655 110.693 341.914C109.294 340.74 108.493 339.469 108.29 338.1C108.081 336.739 108.476 335.433 109.475 334.181L114.164 328.593C115.1 327.478 115.701 326.472 115.969 325.575L116.12 325.396L118.297 327.222ZM120.414 331.695C119.764 331.149 119.005 330.8 118.139 330.647C117.273 330.494 116.483 330.577 115.769 330.896L113.679 333.387L115.306 334.752C117.85 336.886 119.746 337.209 120.995 335.72C121.541 335.07 121.751 334.379 121.625 333.648C121.499 332.917 121.095 332.267 120.414 331.695Z" fill="black"/>
<path d="M98.9052 327.015C99.1469 327.353 99.4369 327.692 99.7753 328.03C101.032 329.287 102.42 329.605 103.939 328.983L111.894 321.028L113.81 322.944L102.603 334.152L100.739 332.287L102.002 330.962C100.373 331.334 98.9811 330.944 97.828 329.791C97.4551 329.418 97.2203 329.087 97.1236 328.797L98.9052 327.015Z" fill="black"/>
<path d="M88.1085 324.082L91.0484 321.615L89.1464 319.348L90.7511 318.002L92.6531 320.269L100.183 313.951C100.669 313.543 100.951 313.134 101.028 312.725C101.098 312.322 100.929 311.878 100.521 311.391C100.32 311.152 99.999 310.86 99.5577 310.517L101.241 309.104C101.849 309.525 102.369 309.993 102.802 310.509C103.581 311.437 103.887 312.372 103.722 313.314C103.556 314.256 102.957 315.16 101.925 316.027L94.395 322.345L96.2499 324.555L94.6453 325.902L92.7904 323.691L89.8504 326.158L88.1085 324.082Z" fill="black"/>
<path d="M83.5189 289.972C82.8846 290.338 82.5333 290.863 82.4648 291.545C82.3831 292.224 82.5595 293.232 82.9943 294.571C83.4242 295.902 83.6642 297.021 83.7142 297.928C83.7594 298.826 83.6344 299.586 83.3392 300.208C83.0391 300.821 82.5508 301.323 81.8742 301.713C80.7494 302.363 79.5245 302.438 78.1995 301.94C76.8697 301.434 75.7775 300.441 74.923 298.961C74.0246 297.405 73.6988 295.912 73.9456 294.484C74.1875 293.048 74.9343 291.968 76.186 291.246L77.5483 293.605C76.9055 293.976 76.5103 294.571 76.3625 295.389C76.2099 296.199 76.3728 297.019 76.8513 297.847C77.3445 298.702 77.9163 299.262 78.5667 299.53C79.2172 299.797 79.8426 299.757 80.4431 299.41C81.0097 299.083 81.3074 298.612 81.3362 297.998C81.3649 297.384 81.1735 296.418 80.7618 295.099C80.3453 293.772 80.1089 292.64 80.0526 291.703C79.9964 290.766 80.1261 289.975 80.4418 289.33C80.7442 288.682 81.2632 288.145 81.999 287.721C83.2253 287.013 84.4938 286.934 85.8044 287.486C87.1066 288.042 88.2094 289.102 89.1127 290.667C89.7475 291.766 90.1145 292.851 90.2137 293.921C90.313 294.992 90.155 295.968 89.7398 296.851C89.3113 297.73 88.6911 298.403 87.8792 298.872L86.5242 296.525C87.2863 296.029 87.7315 295.355 87.8597 294.502C87.9746 293.647 87.7538 292.737 87.1971 291.773C86.6844 290.885 86.0967 290.277 85.4339 289.949C84.7577 289.618 84.1194 289.626 83.5189 289.972Z" fill="black"/>
<path d="M64.7856 287.074L68.2639 285.452L67.0134 282.77L68.9118 281.885L70.1624 284.566L79.0705 280.413C79.6458 280.144 80.0238 279.823 80.2044 279.447C80.3762 279.076 80.328 278.603 80.0597 278.028C79.9277 277.745 79.693 277.38 79.3556 276.934L81.347 276.005C81.8253 276.569 82.2069 277.156 82.4916 277.767C83.0034 278.864 83.0574 279.846 82.6536 280.714C82.2498 281.581 81.4372 282.299 80.2158 282.869L71.3076 287.023L72.5272 289.638L70.6287 290.523L69.4092 287.908L65.9309 289.53L64.7856 287.074Z" fill="black"/>
<path d="M76.4096 263.104C76.1694 263.358 75.6897 263.667 74.9707 264.033C76.6312 264.769 77.7604 265.959 78.3583 267.601C78.8927 269.07 78.9189 270.427 78.4371 271.672C77.9427 272.912 77.0577 273.765 75.7821 274.229C74.2313 274.793 72.8154 274.644 71.5344 273.78C70.2409 272.91 69.2051 271.406 68.4269 269.268L67.525 266.79L66.355 267.216C65.4649 267.54 64.8551 268.063 64.5258 268.786C64.1873 269.512 64.2067 270.393 64.5841 271.43C64.9148 272.338 65.4214 273.017 66.1041 273.464C66.7867 273.912 67.4538 274.018 68.1053 273.781L69.0372 276.341C68.2939 276.611 67.4829 276.61 66.6043 276.338C65.7131 276.059 64.902 275.544 64.1709 274.792C63.4364 274.03 62.8722 273.108 62.478 272.025C61.8534 270.309 61.7954 268.808 62.304 267.521C62.8034 266.238 63.7989 265.304 65.2905 264.719L72.1455 262.224C73.5128 261.727 74.5368 261.156 75.2174 260.514L75.4377 260.434L76.4096 263.104ZM76.0068 268.036C75.7162 267.238 75.2342 266.556 74.5607 265.991C73.8873 265.425 73.1617 265.102 72.3841 265.021L69.3283 266.134L70.0547 268.129C71.1903 271.25 72.6712 272.477 74.4974 271.813C75.2958 271.522 75.8229 271.029 76.0788 270.333C76.3348 269.637 76.3108 268.871 76.0068 268.036Z" fill="black"/>
<path d="M59.7192 253.228C59.7593 253.642 59.8413 254.08 59.9651 254.543C60.4252 256.259 61.4683 257.228 63.0947 257.45L73.9614 254.538L74.6628 257.156L59.3532 261.258L58.6708 258.711L60.4281 258.195C58.8303 257.703 57.8204 256.669 57.3983 255.094C57.2618 254.585 57.2242 254.18 57.2855 253.881L59.7192 253.228Z" fill="black"/>
<path d="M51.8357 245.29L55.6153 244.624L55.1015 241.71L57.1644 241.346L57.6782 244.26L67.358 242.553C67.9831 242.443 68.4314 242.23 68.703 241.914C68.965 241.6 69.0409 241.131 68.9306 240.506C68.8764 240.198 68.744 239.785 68.5337 239.267L70.6976 238.885C71.0137 239.553 71.2303 240.219 71.3473 240.883C71.5576 242.075 71.3555 243.038 70.741 243.771C70.1265 244.504 69.1557 244.988 67.8285 245.222L58.1488 246.929L58.6499 249.771L56.587 250.134L56.0859 247.292L52.3063 247.959L51.8357 245.29Z" fill="black"/>
<path d="M64.7959 213.455C64.0635 213.455 63.4971 213.733 63.0967 214.29C62.6865 214.837 62.335 215.799 62.042 217.176C61.749 218.543 61.3975 219.632 60.9873 220.442C60.5771 221.243 60.0889 221.839 59.5225 222.229C58.9561 222.61 58.2822 222.801 57.501 222.801C56.2021 222.801 55.1035 222.254 54.2051 221.16C53.3066 220.057 52.8574 218.65 52.8574 216.941C52.8574 215.145 53.3213 213.689 54.249 212.576C55.1768 211.453 56.3633 210.892 57.8086 210.892V213.616C57.0664 213.616 56.4268 213.934 55.8896 214.568C55.3525 215.193 55.084 215.984 55.084 216.941C55.084 217.928 55.2988 218.699 55.7285 219.256C56.1582 219.812 56.7197 220.091 57.4131 220.091C58.0674 220.091 58.5605 219.832 58.8926 219.314C59.2246 218.797 59.542 217.864 59.8447 216.517C60.1475 215.159 60.5088 214.061 60.9287 213.221C61.3486 212.381 61.8564 211.761 62.4521 211.36C63.0381 210.95 63.7559 210.745 64.6055 210.745C66.0215 210.745 67.1592 211.312 68.0186 212.444C68.8682 213.577 69.293 215.047 69.293 216.854C69.293 218.123 69.0684 219.246 68.6191 220.223C68.1699 221.199 67.5449 221.966 66.7441 222.522C65.9336 223.069 65.0596 223.343 64.1221 223.343V220.633C65.0303 220.584 65.7529 220.223 66.29 219.549C66.8174 218.865 67.0811 217.967 67.0811 216.854C67.0811 215.828 66.876 215.008 66.4658 214.393C66.0459 213.768 65.4893 213.455 64.7959 213.455Z" fill="black"/>
<path d="M50.1415 201.578L53.9648 201.913L54.2226 198.965L56.3094 199.148L56.0515 202.095L65.8432 202.952C66.4756 203.007 66.9637 202.918 67.3078 202.683C67.6421 202.448 67.8369 202.014 67.8922 201.382C67.9194 201.07 67.8985 200.637 67.8294 200.082L70.0183 200.274C70.1508 201.001 70.1876 201.7 70.1289 202.371C70.0233 203.578 69.5789 204.455 68.7957 205.004C68.0124 205.553 66.9495 205.769 65.607 205.652L55.8153 204.795L55.5638 207.67L53.4771 207.487L53.7286 204.612L49.9053 204.278L50.1415 201.578Z" fill="black"/>
<path d="M72.1932 186.632C71.8583 186.732 71.2881 186.76 70.4825 186.717C71.5525 188.185 71.9357 189.78 71.6322 191.501C71.3608 193.04 70.7051 194.228 69.6648 195.066C68.6167 195.893 67.4242 196.188 66.0874 195.953C64.4621 195.666 63.3108 194.828 62.6334 193.44C61.9482 192.04 61.8031 190.219 62.1982 187.978L62.6561 185.382L61.4299 185.166C60.497 185.001 59.7073 185.149 59.0608 185.611C58.4046 186.07 57.9807 186.843 57.7891 187.93C57.6212 188.882 57.7209 189.723 58.0881 190.452C58.4554 191.181 58.9804 191.606 59.6632 191.726L59.1901 194.409C58.4111 194.272 57.7093 193.865 57.0847 193.19C56.4521 192.503 56.0073 191.652 55.7504 190.634C55.4951 189.608 55.4675 188.527 55.6676 187.392C55.9847 185.594 56.6852 184.264 57.7689 183.404C58.8431 182.543 60.1722 182.232 61.7562 182.471L68.9403 183.738C70.3733 183.991 71.5451 184.009 72.4559 183.793L72.6867 183.833L72.1932 186.632ZM69.3783 190.702C69.5258 189.865 69.4493 189.034 69.1488 188.207C68.8483 187.381 68.3815 186.738 67.7484 186.28L64.5459 185.715L64.177 187.807C63.6005 191.077 64.2691 192.88 66.1829 193.218C67.0196 193.365 67.7228 193.202 68.2924 192.727C68.862 192.252 69.224 191.577 69.3783 190.702Z" fill="black"/>
<path d="M62.6767 169.734C62.5045 170.113 62.3565 170.533 62.2327 170.995C61.7727 172.712 62.1916 174.073 63.4894 175.078L74.356 177.99L73.6546 180.607L58.3451 176.505L59.0275 173.958L60.8076 174.39C59.6698 173.165 59.312 171.765 59.7341 170.189C59.8705 169.68 60.0402 169.311 60.243 169.082L62.6767 169.734Z" fill="black"/>
<path d="M59.8184 158.918L63.4248 160.23L64.4369 157.45L66.4053 158.166L65.3932 160.947L74.6296 164.308C75.226 164.526 75.7208 164.565 76.1138 164.428C76.4976 164.287 76.7981 163.918 77.0152 163.322C77.1221 163.028 77.214 162.604 77.2909 162.05L79.3557 162.802C79.2954 163.539 79.15 164.223 78.9195 164.857C78.5054 165.995 77.849 166.727 76.9503 167.055C76.0516 167.383 74.9691 167.316 73.7027 166.855L64.4664 163.493L63.4794 166.205L61.511 165.489L62.498 162.777L58.8915 161.464L59.8184 158.918Z" fill="black"/>
<path d="M87.0637 137.888C86.4294 137.522 85.7997 137.479 85.1746 137.761C84.546 138.03 83.7606 138.687 82.8184 139.733C81.881 140.771 81.0321 141.538 80.2717 142.035C79.5161 142.523 78.7954 142.795 78.1095 142.85C77.4286 142.897 76.7498 142.725 76.0732 142.334C74.9484 141.685 74.2704 140.662 74.0392 139.265C73.8129 137.86 74.127 136.418 74.9815 134.938C75.8799 133.382 77.0092 132.354 78.3693 131.853C79.7342 131.345 81.0425 131.452 82.2942 132.174L80.9319 134.534C80.2892 134.163 79.5765 134.118 78.794 134.399C78.0163 134.672 77.3882 135.222 76.9097 136.051C76.4166 136.905 76.2169 137.681 76.3107 138.378C76.4045 139.075 76.7516 139.596 77.3521 139.943C77.9187 140.27 78.4752 140.293 79.0215 140.011C79.5679 139.728 80.3091 139.079 81.2451 138.064C82.1859 137.039 83.0482 136.269 83.8318 135.751C84.6154 135.234 85.3652 134.951 86.0813 134.902C86.7938 134.84 87.5179 135.021 88.2537 135.446C89.48 136.154 90.1821 137.213 90.3599 138.624C90.5293 140.03 90.1623 141.515 89.259 143.08C88.6243 144.179 87.8682 145.039 86.9909 145.66C86.1136 146.281 85.189 146.633 84.2172 146.715C83.2418 146.783 82.3482 146.583 81.5363 146.114L82.8912 143.767C83.7022 144.179 84.5087 144.227 85.3107 143.912C86.1092 143.584 86.7868 142.938 87.3434 141.974C87.8561 141.086 88.0887 140.273 88.0411 139.535C87.9899 138.783 87.6641 138.235 87.0637 137.888Z" fill="black"/>
<path d="M80.2073 120.215L83.3511 122.417L85.0483 119.993L86.7642 121.194L85.067 123.618L93.1185 129.256C93.6385 129.62 94.1061 129.786 94.5213 129.755C94.9285 129.718 95.3142 129.44 95.6782 128.92C95.8575 128.664 96.0559 128.279 96.2736 127.763L98.0735 129.024C97.8246 129.72 97.5069 130.344 97.1204 130.896C96.4259 131.887 95.6022 132.425 94.6493 132.509C93.6965 132.593 92.6681 132.249 91.5641 131.476L83.5126 125.838L81.8574 128.202L80.1415 127L81.7967 124.636L78.6529 122.435L80.2073 120.215Z" fill="black"/>
<path d="M106.778 118.297C106.438 118.216 105.93 117.955 105.254 117.516C105.446 119.322 104.981 120.894 103.857 122.233C102.853 123.43 101.691 124.132 100.371 124.337C99.0498 124.529 97.8694 124.189 96.8296 123.316C95.5653 122.255 94.987 120.954 95.0948 119.413C95.2013 117.858 95.9859 116.209 97.4485 114.466L99.1434 112.446L98.1895 111.646C97.4639 111.037 96.7058 110.77 95.9153 110.846C95.1174 110.916 94.3637 111.374 93.6544 112.219C93.033 112.96 92.699 113.737 92.6524 114.553C92.6059 115.368 92.8482 115.998 93.3794 116.444L91.628 118.531C91.0221 118.022 90.6175 117.32 90.4142 116.422C90.2097 115.511 90.2505 114.551 90.5365 113.542C90.8288 112.525 91.3453 111.575 92.086 110.693C93.2598 109.294 94.531 108.493 95.8996 108.29C97.2607 108.081 98.5673 108.476 99.8193 109.475L105.407 114.164C106.522 115.1 107.528 115.702 108.425 115.97L108.604 116.12L106.778 118.297ZM102.305 120.415C102.851 119.764 103.2 119.005 103.353 118.139C103.506 117.273 103.423 116.483 103.105 115.77L100.613 113.679L99.2481 115.306C97.1138 117.85 96.791 119.746 98.2797 120.995C98.9306 121.542 99.6213 121.751 100.352 121.625C101.083 121.499 101.734 121.095 102.305 120.415Z" fill="black"/>
<path d="M106.985 98.9051C106.647 99.1468 106.308 99.4368 105.97 99.7751C104.713 101.032 104.395 102.42 105.017 103.939L112.972 111.894L111.056 113.81L99.8483 102.603L101.713 100.738L103.039 102.002C102.666 100.372 103.056 98.981 104.209 97.8278C104.582 97.4549 104.913 97.2202 105.203 97.1235L106.985 98.9051Z" fill="black"/>
<path d="M109.918 88.1084L112.385 91.0484L114.652 89.1464L115.998 90.7511L113.731 92.6531L120.049 100.183C120.457 100.669 120.866 100.951 121.275 101.028C121.678 101.098 122.123 100.929 122.609 100.521C122.848 100.32 123.14 99.9989 123.483 99.5576L124.896 101.241C124.475 101.849 124.007 102.369 123.491 102.802C122.563 103.581 121.628 103.887 120.686 103.721C119.744 103.556 118.84 102.957 117.973 101.925L111.655 94.395L109.445 96.2499L108.098 94.6453L110.309 92.7903L107.842 89.8503L109.918 88.1084Z" fill="black"/>
<path d="M144.028 83.5187C143.662 82.8844 143.138 82.533 142.455 82.4646C141.777 82.3828 140.768 82.5593 139.429 82.9941C138.098 83.4239 136.98 83.6639 136.073 83.714C135.174 83.7592 134.414 83.6342 133.792 83.3389C133.179 83.0389 132.678 82.5505 132.287 81.8739C131.638 80.7491 131.562 79.5242 132.06 78.1993C132.566 76.8695 133.56 75.7773 135.04 74.9228C136.596 74.0244 138.088 73.6986 139.516 73.9454C140.952 74.1873 142.032 74.9341 142.754 76.1858L140.395 77.5481C140.024 76.9053 139.429 76.51 138.611 76.3623C137.801 76.2096 136.982 76.3726 136.153 76.8511C135.299 77.3442 134.738 77.916 134.471 78.5665C134.203 79.2169 134.243 79.8424 134.59 80.4428C134.917 81.0095 135.388 81.3072 136.002 81.3359C136.616 81.3647 137.583 81.1732 138.901 80.7616C140.228 80.3451 141.36 80.1087 142.297 80.0524C143.235 79.9961 144.026 80.1259 144.67 80.4416C145.318 80.7439 145.855 81.263 146.28 81.9988C146.988 83.2251 147.066 84.4936 146.515 85.8042C145.958 87.1064 144.898 88.2091 143.333 89.1125C142.234 89.7472 141.149 90.1142 140.079 90.2135C139.008 90.3127 138.032 90.1548 137.15 89.7396C136.271 89.3111 135.597 88.6909 135.128 87.879L137.475 86.524C137.971 87.2861 138.646 87.7313 139.498 87.8595C140.353 87.9744 141.263 87.7535 142.227 87.1969C143.115 86.6842 143.723 86.0964 144.051 85.4336C144.382 84.7575 144.375 84.1191 144.028 83.5187Z" fill="black"/>
<path d="M146.926 64.7855L148.548 68.2638L151.23 67.0132L152.115 68.9117L149.433 70.1622L153.587 79.0704C153.856 79.6457 154.177 80.0237 154.553 80.2043C154.924 80.3761 155.397 80.3279 155.972 80.0596C156.255 79.9275 156.62 79.6928 157.066 79.3555L157.995 81.3469C157.431 81.8252 156.844 82.2067 156.233 82.4915C155.136 83.0033 154.153 83.0573 153.286 82.6535C152.419 82.2497 151.701 81.4371 151.131 80.2157L146.977 71.3075L144.362 72.5271L143.477 70.6286L146.092 69.409L144.47 65.9307L146.926 64.7855Z" fill="black"/>
<path d="M170.896 76.4097C170.642 76.1695 170.333 75.6898 169.967 74.9707C169.231 76.6313 168.041 77.7605 166.399 78.3583C164.931 78.8927 163.574 78.919 162.328 78.4371C161.088 77.9427 160.236 77.0578 159.771 75.7822C159.207 74.2313 159.357 72.8154 160.221 71.5345C161.09 70.241 162.594 69.2051 164.733 68.4269L167.21 67.5251L166.785 66.3551C166.461 65.4649 165.937 64.8552 165.215 64.5258C164.489 64.1873 163.607 64.2068 162.57 64.5842C161.662 64.9149 160.984 65.4215 160.536 66.1041C160.088 66.7867 159.983 67.4538 160.22 68.1054L157.659 69.0372C157.389 68.2939 157.39 67.4829 157.662 66.6043C157.941 65.7132 158.456 64.902 159.209 64.1709C159.97 63.4365 160.892 62.8722 161.975 62.4781C163.691 61.8535 165.193 61.7955 166.479 62.3041C167.763 62.8034 168.696 63.7989 169.281 65.2906L171.776 72.1455C172.274 73.5129 172.844 74.5369 173.486 75.2175L173.567 75.4377L170.896 76.4097ZM165.964 76.0069C166.762 75.7163 167.444 75.2343 168.01 74.5608C168.575 73.8873 168.898 73.1618 168.979 72.3842L167.867 69.3283L165.871 70.0548C162.751 71.1904 161.523 72.6713 162.188 74.4974C162.478 75.2958 162.971 75.823 163.667 76.0789C164.363 76.3348 165.129 76.3108 165.964 76.0069Z" fill="black"/>
<path d="M180.772 59.7192C180.358 59.7594 179.92 59.8414 179.458 59.9652C177.741 60.4252 176.772 61.4684 176.55 63.0948L179.462 73.9615L176.844 74.6629L172.742 59.3533L175.289 58.6709L175.805 60.4282C176.297 58.8304 177.331 57.8205 178.906 57.3984C179.416 57.2619 179.82 57.2243 180.12 57.2856L180.772 59.7192Z" fill="black"/>
<path d="M188.71 51.8356L189.376 55.6152L192.291 55.1014L192.654 57.1643L189.74 57.6781L191.447 67.3579C191.557 67.983 191.77 68.4314 192.086 68.7029C192.4 68.9649 192.869 69.0408 193.494 68.9306C193.802 68.8763 194.215 68.744 194.733 68.5336L195.115 70.6975C194.447 71.0136 193.781 71.2302 193.117 71.3472C191.925 71.5575 190.962 71.3554 190.229 70.7409C189.496 70.1265 189.012 69.1556 188.778 67.8285L187.071 58.1487L184.23 58.6498L183.866 56.5869L186.708 56.0858L186.041 52.3062L188.71 51.8356Z" fill="black"/>
</svg>
