<svg width="35" height="35" viewBox="0 0 35 35" fill="none" xmlns="http://www.w3.org/2000/svg">
<path d="M17.5 35C27.165 35 35 27.165 35 17.5C35 7.83502 27.165 0 17.5 0C7.83502 0 0 7.83502 0 17.5C0 27.165 7.83502 35 17.5 35Z" fill="white"/>
<path d="M17.4125 17.1845C16.836 16.6518 16.1962 15.9033 15.9185 15.2424C15.8763 15.1564 15.7903 14.9436 15.9185 14.7731C16.1751 14.4321 16.2173 14.4094 16.495 14.0895C16.6866 13.8541 16.836 13.6413 16.7726 13.4482L15.8129 10.9508C15.7269 10.7803 15.4719 10.7591 15.1731 10.7365C14.9166 10.7365 14.6404 10.7365 14.4472 10.7787C14.0202 10.9281 13.145 12.081 13.0393 12.914C12.8039 14.7278 14.4472 17.1407 16.0906 18.6362C17.7339 20.1527 20.2735 21.5833 22.0662 21.1773C22.8977 20.9857 23.9661 20.0245 24.0506 19.5763C24.0928 19.3846 24.0717 19.107 24.0295 18.8504C24.0083 18.5517 23.9435 18.3389 23.7729 18.2529L21.5969 17.2494C21.4038 17.1422 21.2121 17.2283 21.0205 17.4637C20.7866 17.7836 20.678 17.9118 20.4018 18.2529C20.2524 18.4445 20.1453 18.5728 19.9748 18.5939C19.7816 18.6362 19.5266 18.5305 19.4843 18.5305C18.7992 18.2951 18.01 17.7187 17.4125 17.1845ZM10.2431 24.8488L11.4805 21.71C10.1149 20.1301 9.2819 18.0582 9.2819 15.7962C9.2819 10.7999 13.3366 6.76478 18.3299 6.76478C23.3233 6.76478 27.3568 10.7999 27.3568 15.7962C27.3568 20.7925 23.3233 24.8488 18.3299 24.8488C16.3245 24.8488 14.488 24.2074 12.9956 23.0983L10.2431 24.8488ZM8.72659 21.7749L7.0199 28.6062L13.1223 25.8296C14.6796 26.6415 16.4512 27.1108 18.3299 27.1108C24.5606 27.1108 29.6188 22.0495 29.6188 15.7947C29.6188 9.56098 24.5606 4.49976 18.3299 4.49976C12.0766 4.49976 7.0199 9.55947 7.0199 15.7932C7.0199 17.9948 7.65972 20.0456 8.72659 21.7749Z" fill="black"/>
</svg>
