<svg width="35" height="35" viewBox="0 0 35 35" fill="none" xmlns="http://www.w3.org/2000/svg">
<path d="M17.5 0C7.88803 0 0 7.88803 0 17.5C0 25.7023 5.75554 33.1532 13.3984 35V29.2103C12.6411 29.3761 11.9442 29.3809 11.1733 29.1537C10.1391 28.8485 9.29874 28.1595 8.67496 27.109C8.27736 26.4383 7.57267 25.7109 6.83754 25.7643L6.6573 23.7215C8.24692 23.5853 9.62212 24.69 10.4384 26.0615C10.801 26.6714 11.2184 27.0289 11.7541 27.187C12.2718 27.3395 12.8278 27.2663 13.4756 27.0375C13.6382 25.7405 14.2324 25.2551 14.6812 24.5715V24.5704C10.1231 23.8905 8.30647 21.4723 7.58549 19.5636C6.63006 17.0292 7.14275 13.8631 8.83224 11.8622C8.86509 11.8232 8.92437 11.7212 8.90141 11.6499C8.12675 9.30996 9.0707 7.37427 9.10542 7.16892C9.99943 7.43328 10.1447 6.90296 12.9888 8.63091L13.4804 8.92624C13.686 9.04881 13.6214 8.97884 13.827 8.96336C15.0145 8.64079 16.2663 8.46268 17.4997 8.44666C18.7425 8.46268 19.9863 8.64079 21.2229 8.97644L21.3821 8.99246C21.3682 8.99033 21.4253 8.98232 21.5212 8.92517C25.074 6.77319 24.9464 7.47654 25.8991 7.16679C25.9336 7.3724 26.865 9.3396 26.0986 11.6499C25.9953 11.9682 29.1788 14.8834 27.4142 19.5628C26.6933 21.4723 24.8769 23.8905 20.3188 24.5704V24.5715C20.903 25.462 21.605 25.9357 21.6013 27.7729V35C29.2445 33.1532 34.9997 25.7023 34.9997 17.5C35 7.88803 27.112 0 17.5 0V0Z" fill="#6D6D6D"/>
</svg>
