<svg width="35" height="35" viewBox="0 0 35 35" fill="none" xmlns="http://www.w3.org/2000/svg">
<path d="M17.5 35C27.165 35 35 27.165 35 17.5C35 7.83502 27.165 0 17.5 0C7.83502 0 0 7.83502 0 17.5C0 27.165 7.83502 35 17.5 35Z" fill="#6D6D6D"/>
<path d="M25.0634 7.41528H9.93708C8.51258 7.41528 7.41553 8.51233 7.41553 9.93684V25.0632C7.41553 26.4862 8.51258 27.5847 9.93708 27.5847H25.0634C26.4864 27.5847 27.585 26.4862 27.585 25.0632V9.93684C27.585 8.51233 26.4864 7.41528 25.0634 7.41528ZM17.5153 13.5388C19.7517 13.5388 21.5655 15.2953 21.5655 17.4623C21.5655 19.6292 19.7532 21.3857 17.5153 21.3857C15.2805 21.3857 13.4667 19.6277 13.4667 17.4623C13.4667 15.2953 15.2805 13.5388 17.5153 13.5388ZM25.0634 24.4324C25.0634 24.8745 24.8748 25.0632 24.4326 25.0632H10.5663C10.1257 25.0632 9.93558 24.8745 9.93558 24.4324V15.6092L11.5065 15.9502C11.3374 16.498 11.2469 17.079 11.2469 17.6811C11.2469 21.0326 14.0537 23.7533 17.5138 23.7533C20.9755 23.7533 23.7808 21.0341 23.7808 17.6811C23.7808 17.079 23.6887 16.4995 23.5212 15.9502L25.0619 15.6092V24.4324H25.0634ZM25.0634 13.0877C25.0634 13.4362 24.7812 13.7184 24.4326 13.7184H21.9111C21.5625 13.7184 21.2803 13.4362 21.2803 13.0877V10.5661C21.2803 10.2175 21.5625 9.93533 21.9111 9.93533H24.4326C24.7812 9.93533 25.0634 10.2175 25.0634 10.5661V13.0877Z" fill="white"/>
</svg>
