<svg width="35" height="35" viewBox="0 0 35 35" fill="none" xmlns="http://www.w3.org/2000/svg">
<g clip-path="url(#clip0)">
<path d="M17.4183 -1.33962e-05C12.7912 0.0215801 8.36097 1.87485 5.09672 5.1544C1.83248 8.43395 -5.0384e-05 12.8728 1.03897e-09 17.5C1.03898e-09 22.1413 1.84374 26.5925 5.12563 29.8744C8.40752 33.1562 12.8587 35 17.5 35C22.1413 35 26.5925 33.1562 29.8744 29.8744C33.1563 26.5925 35 22.1413 35 17.5C35 12.8587 33.1563 8.4075 29.8744 5.12562C26.5925 1.84373 22.1413 -1.33962e-05 17.5 -1.33962e-05C17.4728 -7.69148e-05 17.4456 -7.69148e-05 17.4183 -1.33962e-05ZM24.6546 10.535C24.8004 10.5321 25.1227 10.5685 25.3327 10.7392C25.4723 10.8603 25.5612 11.0295 25.5821 11.2131C25.6054 11.3487 25.6346 11.6594 25.6113 11.9014C25.3488 14.6694 24.2083 21.3835 23.6279 24.4825C23.3829 25.795 22.9002 26.2339 22.4321 26.2762C21.4171 26.371 20.6456 25.6054 19.6613 24.9608C18.1213 23.9502 17.2506 23.3217 15.7558 22.3358C14.0277 21.1983 15.1477 20.5712 16.1321 19.5504C16.3902 19.2821 20.8673 15.2089 20.9548 14.84C20.965 14.7933 20.9752 14.6212 20.8731 14.5308C20.771 14.4404 20.6194 14.471 20.51 14.4958C20.3554 14.5308 17.8952 16.1583 13.1294 19.3739C12.4294 19.8552 11.7979 20.0885 11.2306 20.0739C10.6065 20.0623 9.40479 19.7225 8.51083 19.4323C7.41417 19.075 6.54354 18.8869 6.61938 18.2817C6.65875 17.9667 7.09333 17.6444 7.92167 17.3148C13.0229 15.0923 16.4238 13.6267 18.1271 12.9194C22.9863 10.8981 23.9969 10.5467 24.6546 10.535Z" fill="#6D6D6D"/>
</g>
<defs>
<clipPath id="clip0">
<rect width="35" height="35" fill="white"/>
</clipPath>
</defs>
</svg>
