<svg width="35" height="35" viewBox="0 0 35 35" fill="none" xmlns="http://www.w3.org/2000/svg">
<path d="M17.5 35C27.165 35 35 27.165 35 17.5C35 7.83502 27.165 0 17.5 0C7.83502 0 0 7.83502 0 17.5C0 27.165 7.83502 35 17.5 35Z" fill="#6D6D6D"/>
<path d="M17.4121 17.1846C16.8356 16.6519 16.1958 15.9035 15.9182 15.2425C15.8759 15.1565 15.7899 14.9437 15.9182 14.7732C16.1747 14.4322 16.217 14.4096 16.4946 14.0896C16.6863 13.8542 16.8356 13.6415 16.7723 13.4483L15.8125 10.9509C15.7265 10.7804 15.4715 10.7593 15.1727 10.7366C14.9162 10.7366 14.64 10.7366 14.4469 10.7789C14.0198 10.9283 13.1446 12.0811 13.039 12.9141C12.8036 14.728 14.4469 17.1409 16.0902 18.6363C17.7335 20.1528 20.2732 21.5834 22.0659 21.1775C22.8973 20.9858 23.9657 20.0246 24.0502 19.5764C24.0925 19.3848 24.0714 19.1071 24.0291 18.8506C24.008 18.5518 23.9431 18.339 23.7726 18.253L21.5966 17.2495C21.4034 17.1424 21.2118 17.2284 21.0201 17.4638C20.7862 17.7837 20.6776 17.912 20.4014 18.253C20.252 18.4446 20.1449 18.5729 19.9744 18.594C19.7812 18.6363 19.5262 18.5307 19.484 18.5307C18.7989 18.2953 18.0097 17.7188 17.4121 17.1846ZM10.2428 24.8489L11.4802 21.7101C10.1145 20.1302 9.28154 18.0583 9.28154 15.7963C9.28154 10.8 13.3362 6.7649 18.3296 6.7649C23.3229 6.7649 27.3565 10.8 27.3565 15.7963C27.3565 20.7927 23.3229 24.8489 18.3296 24.8489C16.3241 24.8489 14.4876 24.2076 12.9952 23.0984L10.2428 24.8489ZM8.72622 21.775L7.01953 28.6063L13.122 25.8297C14.6793 26.6416 16.4508 27.1109 18.3296 27.1109C24.5603 27.1109 29.6185 22.0497 29.6185 15.7948C29.6185 9.5611 24.5603 4.49988 18.3296 4.49988C12.0762 4.49988 7.01953 9.55959 7.01953 15.7933C7.01953 17.995 7.65935 20.0457 8.72622 21.775Z" fill="white"/>
</svg>
