<svg width="1230" height="38" viewBox="0 0 1230 38" fill="none" xmlns="http://www.w3.org/2000/svg">
<path d="M4.112 31C3.824 31 3.584 30.904 3.392 30.712C3.2 30.52 3.104 30.28 3.104 29.992V11.032C3.104 10.744 3.2 10.504 3.392 10.312C3.584 10.12 3.824 10.024 4.112 10.024C4.4 10.024 4.64 10.12 4.832 10.312C5.024 10.504 5.12 10.744 5.12 11.032V19.368H18.416V11.032C18.416 10.744 18.512 10.504 18.704 10.312C18.896 10.12 19.136 10.024 19.424 10.024C19.712 10.024 19.952 10.12 20.144 10.312C20.336 10.504 20.432 10.744 20.432 11.032V29.992C20.432 30.28 20.336 30.52 20.144 30.712C19.952 30.904 19.712 31 19.424 31C19.136 31 18.896 30.904 18.704 30.712C18.512 30.52 18.416 30.28 18.416 29.992V21.384H5.12V29.992C5.12 30.28 5.024 30.52 4.832 30.712C4.64 30.904 4.4 31 4.112 31ZM32.8593 31.016C32.5393 31.016 32.2886 30.9307 32.1073 30.76C31.9366 30.5787 31.8513 30.328 31.8513 30.008V12.04H25.2433C24.9233 12.04 24.6726 11.9547 24.4913 11.784C24.3206 11.6027 24.2353 11.352 24.2353 11.032C24.2353 10.712 24.3206 10.4667 24.4913 10.296C24.6726 10.1147 24.9233 10.024 25.2433 10.024H40.4753C40.7953 10.024 41.0406 10.1147 41.2113 10.296C41.3926 10.4667 41.4833 10.712 41.4833 11.032C41.4833 11.352 41.3926 11.6027 41.2113 11.784C41.0406 11.9547 40.7953 12.04 40.4753 12.04H33.8673V30.008C33.8673 30.3173 33.7766 30.5627 33.5953 30.744C33.4246 30.9253 33.1793 31.016 32.8593 31.016ZM46.2995 31C45.6275 31 45.2915 30.664 45.2915 29.992V11.032C45.2915 10.36 45.6275 10.024 46.2995 10.024C46.7688 10.024 47.1475 10.2427 47.4355 10.68L55.2595 22.584L54.8115 22.648L62.6675 10.68C62.9448 10.2427 63.3502 10.024 63.8835 10.024C64.4595 10.024 64.7475 10.36 64.7475 11.032V29.992C64.7475 30.664 64.4115 31 63.7395 31C63.0675 31 62.7315 30.664 62.7315 29.992V13.048L63.3395 13.256L56.1715 24.056C55.8835 24.4933 55.4782 24.712 54.9555 24.712C54.5395 24.712 54.1875 24.4933 53.8995 24.056L46.7315 13.256L47.3075 13.448V29.992C47.3075 30.664 46.9715 31 46.2995 31ZM71.9557 31C71.2838 31 70.9478 30.664 70.9478 29.992V11.032C70.9478 10.36 71.2838 10.024 71.9557 10.024C72.6278 10.024 72.9638 10.36 72.9638 11.032V28.984H82.4038C83.0758 28.984 83.4118 29.32 83.4118 29.992C83.4118 30.664 83.0758 31 82.4038 31H71.9557Z" fill="#CADFDF"/>
<path d="M128.392 31C126.035 31 124.307 30.4507 123.208 29.352C122.109 28.2533 121.56 26.5253 121.56 24.168V16.856C121.56 14.4773 122.109 12.744 123.208 11.656C124.307 10.5573 126.024 10.0133 128.36 10.024H132.232C134.216 10.024 135.704 10.4347 136.696 11.256C137.688 12.0667 138.243 13.3733 138.36 15.176C138.403 15.5067 138.339 15.7627 138.168 15.944C137.997 16.1253 137.741 16.216 137.4 16.216C136.781 16.216 136.429 15.88 136.344 15.208C136.259 13.992 135.901 13.16 135.272 12.712C134.653 12.264 133.64 12.04 132.232 12.04H128.36C127.165 12.0293 126.221 12.1733 125.528 12.472C124.835 12.7707 124.333 13.272 124.024 13.976C123.725 14.68 123.576 15.64 123.576 16.856V24.168C123.576 25.3627 123.725 26.312 124.024 27.016C124.333 27.72 124.84 28.2267 125.544 28.536C126.248 28.8347 127.197 28.984 128.392 28.984H132.232C133.64 28.984 134.653 28.76 135.272 28.312C135.901 27.8533 136.259 27.0213 136.344 25.816C136.429 25.144 136.781 24.808 137.4 24.808C137.741 24.808 137.997 24.8987 138.168 25.08C138.339 25.2507 138.403 25.5067 138.36 25.848C138.243 27.64 137.688 28.9467 136.696 29.768C135.704 30.5893 134.216 31 132.232 31H128.392ZM149.073 30.984C147.196 30.984 145.777 30.5787 144.817 29.768C143.868 28.9573 143.329 27.688 143.201 25.96C143.18 25.6293 143.26 25.3733 143.441 25.192C143.622 25.0107 143.873 24.92 144.193 24.92C144.513 24.92 144.753 25.0053 144.913 25.176C145.084 25.3467 145.19 25.592 145.233 25.912C145.308 27.0533 145.633 27.848 146.209 28.296C146.785 28.744 147.74 28.968 149.073 28.968H153.681C155.153 28.968 156.166 28.6907 156.721 28.136C157.286 27.5707 157.569 26.5627 157.569 25.112C157.569 23.64 157.281 22.6267 156.705 22.072C156.14 21.5067 155.132 21.224 153.681 21.224H149.441C147.51 21.224 146.092 20.7707 145.185 19.864C144.278 18.9467 143.825 17.528 143.825 15.608C143.825 13.688 144.273 12.28 145.169 11.384C146.076 10.4773 147.489 10.024 149.409 10.024H153.665C155.425 10.024 156.753 10.408 157.649 11.176C158.556 11.9333 159.073 13.1227 159.201 14.744C159.233 15.064 159.158 15.32 158.977 15.512C158.796 15.6933 158.54 15.784 158.209 15.784C157.9 15.784 157.66 15.6987 157.489 15.528C157.318 15.3467 157.217 15.1013 157.185 14.792C157.1 13.7573 156.79 13.0427 156.257 12.648C155.724 12.2427 154.86 12.04 153.665 12.04H149.409C148.044 12.04 147.105 12.3013 146.593 12.824C146.092 13.336 145.841 14.264 145.841 15.608C145.841 16.952 146.097 17.8907 146.609 18.424C147.132 18.9467 148.076 19.208 149.441 19.208H153.681C155.697 19.208 157.185 19.688 158.145 20.648C159.105 21.5973 159.585 23.0853 159.585 25.112C159.585 27.128 159.105 28.6107 158.145 29.56C157.196 30.5093 155.708 30.984 153.681 30.984H149.073ZM170.604 30.984C168.727 30.984 167.308 30.5787 166.348 29.768C165.399 28.9573 164.86 27.688 164.732 25.96C164.711 25.6293 164.791 25.3733 164.972 25.192C165.154 25.0107 165.404 24.92 165.724 24.92C166.044 24.92 166.284 25.0053 166.444 25.176C166.615 25.3467 166.722 25.592 166.764 25.912C166.839 27.0533 167.164 27.848 167.74 28.296C168.316 28.744 169.271 28.968 170.604 28.968H175.212C176.684 28.968 177.698 28.6907 178.252 28.136C178.818 27.5707 179.1 26.5627 179.1 25.112C179.1 23.64 178.812 22.6267 178.236 22.072C177.671 21.5067 176.663 21.224 175.212 21.224H170.972C169.042 21.224 167.623 20.7707 166.716 19.864C165.81 18.9467 165.356 17.528 165.356 15.608C165.356 13.688 165.804 12.28 166.7 11.384C167.607 10.4773 169.02 10.024 170.94 10.024H175.196C176.956 10.024 178.284 10.408 179.18 11.176C180.087 11.9333 180.604 13.1227 180.732 14.744C180.764 15.064 180.69 15.32 180.508 15.512C180.327 15.6933 180.071 15.784 179.74 15.784C179.431 15.784 179.191 15.6987 179.02 15.528C178.85 15.3467 178.748 15.1013 178.716 14.792C178.631 13.7573 178.322 13.0427 177.788 12.648C177.255 12.2427 176.391 12.04 175.196 12.04H170.94C169.575 12.04 168.636 12.3013 168.124 12.824C167.623 13.336 167.372 14.264 167.372 15.608C167.372 16.952 167.628 17.8907 168.14 18.424C168.663 18.9467 169.607 19.208 170.972 19.208H175.212C177.228 19.208 178.716 19.688 179.676 20.648C180.636 21.5973 181.116 23.0853 181.116 25.112C181.116 27.128 180.636 28.6107 179.676 29.56C178.727 30.5093 177.239 30.984 175.212 30.984H170.604Z" fill="#CADFDF"/>
<path d="M226.448 30.984C224.571 30.984 223.152 30.5787 222.192 29.768C221.243 28.9573 220.704 27.688 220.576 25.96C220.555 25.6293 220.635 25.3733 220.816 25.192C220.997 25.0107 221.248 24.92 221.568 24.92C221.888 24.92 222.128 25.0053 222.288 25.176C222.459 25.3467 222.565 25.592 222.608 25.912C222.683 27.0533 223.008 27.848 223.584 28.296C224.16 28.744 225.115 28.968 226.448 28.968H231.056C232.528 28.968 233.541 28.6907 234.096 28.136C234.661 27.5707 234.944 26.5627 234.944 25.112C234.944 23.64 234.656 22.6267 234.08 22.072C233.515 21.5067 232.507 21.224 231.056 21.224H226.816C224.885 21.224 223.467 20.7707 222.56 19.864C221.653 18.9467 221.2 17.528 221.2 15.608C221.2 13.688 221.648 12.28 222.544 11.384C223.451 10.4773 224.864 10.024 226.784 10.024H231.04C232.8 10.024 234.128 10.408 235.024 11.176C235.931 11.9333 236.448 13.1227 236.576 14.744C236.608 15.064 236.533 15.32 236.352 15.512C236.171 15.6933 235.915 15.784 235.584 15.784C235.275 15.784 235.035 15.6987 234.864 15.528C234.693 15.3467 234.592 15.1013 234.56 14.792C234.475 13.7573 234.165 13.0427 233.632 12.648C233.099 12.2427 232.235 12.04 231.04 12.04H226.784C225.419 12.04 224.48 12.3013 223.968 12.824C223.467 13.336 223.216 14.264 223.216 15.608C223.216 16.952 223.472 17.8907 223.984 18.424C224.507 18.9467 225.451 19.208 226.816 19.208H231.056C233.072 19.208 234.56 19.688 235.52 20.648C236.48 21.5973 236.96 23.0853 236.96 25.112C236.96 27.128 236.48 28.6107 235.52 29.56C234.571 30.5093 233.083 30.984 231.056 30.984H226.448ZM248.923 31C246.566 31 244.838 30.4507 243.739 29.352C242.641 28.2533 242.091 26.5253 242.091 24.168V16.856C242.091 14.4773 242.641 12.744 243.739 11.656C244.838 10.5573 246.555 10.0133 248.891 10.024H252.763C254.747 10.024 256.235 10.4347 257.227 11.256C258.219 12.0667 258.774 13.3733 258.891 15.176C258.934 15.5067 258.87 15.7627 258.699 15.944C258.529 16.1253 258.273 16.216 257.931 16.216C257.313 16.216 256.961 15.88 256.875 15.208C256.79 13.992 256.433 13.16 255.803 12.712C255.185 12.264 254.171 12.04 252.763 12.04H248.891C247.697 12.0293 246.753 12.1733 246.059 12.472C245.366 12.7707 244.865 13.272 244.555 13.976C244.257 14.68 244.107 15.64 244.107 16.856V24.168C244.107 25.3627 244.257 26.312 244.555 27.016C244.865 27.72 245.371 28.2267 246.075 28.536C246.779 28.8347 247.729 28.984 248.923 28.984H252.763C254.171 28.984 255.185 28.76 255.803 28.312C256.433 27.8533 256.79 27.0213 256.875 25.816C256.961 25.144 257.313 24.808 257.931 24.808C258.273 24.808 258.529 24.8987 258.699 25.08C258.87 25.2507 258.934 25.5067 258.891 25.848C258.774 27.64 258.219 28.9467 257.227 29.768C256.235 30.5893 254.747 31 252.763 31H248.923ZM269.604 30.984C267.727 30.984 266.308 30.5787 265.348 29.768C264.399 28.9573 263.86 27.688 263.732 25.96C263.711 25.6293 263.791 25.3733 263.972 25.192C264.154 25.0107 264.404 24.92 264.724 24.92C265.044 24.92 265.284 25.0053 265.444 25.176C265.615 25.3467 265.722 25.592 265.764 25.912C265.839 27.0533 266.164 27.848 266.74 28.296C267.316 28.744 268.271 28.968 269.604 28.968H274.212C275.684 28.968 276.698 28.6907 277.252 28.136C277.818 27.5707 278.1 26.5627 278.1 25.112C278.1 23.64 277.812 22.6267 277.236 22.072C276.671 21.5067 275.663 21.224 274.212 21.224H269.972C268.042 21.224 266.623 20.7707 265.716 19.864C264.81 18.9467 264.356 17.528 264.356 15.608C264.356 13.688 264.804 12.28 265.7 11.384C266.607 10.4773 268.02 10.024 269.94 10.024H274.196C275.956 10.024 277.284 10.408 278.18 11.176C279.087 11.9333 279.604 13.1227 279.732 14.744C279.764 15.064 279.69 15.32 279.508 15.512C279.327 15.6933 279.071 15.784 278.74 15.784C278.431 15.784 278.191 15.6987 278.02 15.528C277.85 15.3467 277.748 15.1013 277.716 14.792C277.631 13.7573 277.322 13.0427 276.788 12.648C276.255 12.2427 275.391 12.04 274.196 12.04H269.94C268.575 12.04 267.636 12.3013 267.124 12.824C266.623 13.336 266.372 14.264 266.372 15.608C266.372 16.952 266.628 17.8907 267.14 18.424C267.663 18.9467 268.607 19.208 269.972 19.208H274.212C276.228 19.208 277.716 19.688 278.676 20.648C279.636 21.5973 280.116 23.0853 280.116 25.112C280.116 27.128 279.636 28.6107 278.676 29.56C277.727 30.5093 276.239 30.984 274.212 30.984H269.604ZM291.135 30.984C289.258 30.984 287.84 30.5787 286.88 29.768C285.93 28.9573 285.392 27.688 285.264 25.96C285.242 25.6293 285.322 25.3733 285.504 25.192C285.685 25.0107 285.936 24.92 286.256 24.92C286.576 24.92 286.816 25.0053 286.976 25.176C287.146 25.3467 287.253 25.592 287.296 25.912C287.37 27.0533 287.696 27.848 288.272 28.296C288.848 28.744 289.802 28.968 291.135 28.968H295.744C297.216 28.968 298.229 28.6907 298.784 28.136C299.349 27.5707 299.632 26.5627 299.632 25.112C299.632 23.64 299.344 22.6267 298.767 22.072C298.202 21.5067 297.194 21.224 295.744 21.224H291.503C289.573 21.224 288.154 20.7707 287.248 19.864C286.341 18.9467 285.888 17.528 285.888 15.608C285.888 13.688 286.336 12.28 287.232 11.384C288.138 10.4773 289.552 10.024 291.472 10.024H295.728C297.488 10.024 298.816 10.408 299.712 11.176C300.618 11.9333 301.136 13.1227 301.264 14.744C301.296 15.064 301.221 15.32 301.04 15.512C300.858 15.6933 300.602 15.784 300.272 15.784C299.962 15.784 299.722 15.6987 299.552 15.528C299.381 15.3467 299.28 15.1013 299.248 14.792C299.162 13.7573 298.853 13.0427 298.32 12.648C297.786 12.2427 296.922 12.04 295.728 12.04H291.472C290.106 12.04 289.168 12.3013 288.656 12.824C288.154 13.336 287.904 14.264 287.904 15.608C287.904 16.952 288.16 17.8907 288.672 18.424C289.194 18.9467 290.138 19.208 291.503 19.208H295.744C297.76 19.208 299.248 19.688 300.208 20.648C301.168 21.5973 301.648 23.0853 301.648 25.112C301.648 27.128 301.168 28.6107 300.208 29.56C299.258 30.5093 297.77 30.984 295.744 30.984H291.135Z" fill="#CADFDF"/>
<path d="M343.112 31C342.44 31 342.104 30.664 342.104 29.992V11.032C342.104 10.36 342.44 10.024 343.112 10.024H350.6C352.467 10.024 353.885 10.5093 354.856 11.48C355.827 12.4507 356.312 13.8693 356.312 15.736V16.696C356.312 18.552 355.827 19.9707 354.856 20.952C353.885 21.9227 352.467 22.408 350.6 22.408H344.12V29.992C344.12 30.664 343.784 31 343.112 31ZM344.12 20.392H350.6C351.912 20.392 352.856 20.104 353.432 19.528C354.008 18.9413 354.296 17.9973 354.296 16.696V15.736C354.296 14.4347 354.008 13.496 353.432 12.92C352.856 12.3333 351.912 12.04 350.6 12.04H344.12V20.392ZM373.468 15.512C374.14 15.512 374.476 15.848 374.476 16.52V29.992C374.476 30.664 374.14 31 373.468 31C372.796 31 372.46 30.664 372.46 29.992V28.808C371.404 30.2693 369.628 31 367.132 31H366.236C364.188 31 362.684 30.5253 361.724 29.576C360.775 28.616 360.3 27.112 360.3 25.064V16.52C360.3 15.848 360.636 15.512 361.308 15.512C361.98 15.512 362.316 15.848 362.316 16.52V25.064C362.316 26.5467 362.599 27.5707 363.164 28.136C363.74 28.7013 364.764 28.984 366.236 28.984H367.132C368.657 28.984 369.895 28.76 370.844 28.312C371.793 27.864 372.332 27.1653 372.46 26.216V16.52C372.46 15.848 372.796 15.512 373.468 15.512ZM384.426 37.4C383.156 37.4 382.18 37.1387 381.498 36.616C380.815 36.0933 380.394 35.288 380.234 34.2C380.191 33.8587 380.255 33.592 380.426 33.4C380.607 33.2187 380.868 33.128 381.21 33.128C381.53 33.128 381.764 33.208 381.914 33.368C382.063 33.5387 382.175 33.7893 382.25 34.12C382.346 34.6 382.559 34.9307 382.89 35.112C383.22 35.2933 383.732 35.384 384.426 35.384H390.378C391.274 35.384 391.871 35.2293 392.17 34.92C392.479 34.6107 392.634 34.0133 392.634 33.128V28.824C392.122 29.5387 391.423 30.0827 390.538 30.456C389.663 30.8187 388.586 31 387.306 31H386.09C384.052 31 382.554 30.52 381.594 29.56C380.634 28.6 380.154 27.112 380.154 25.096V21.448C380.154 19.3893 380.628 17.8853 381.578 16.936C382.538 15.9867 384.042 15.512 386.09 15.512H388.714C389.663 15.512 390.458 15.6453 391.098 15.912C391.738 16.168 392.25 16.568 392.634 17.112V16.52C392.634 15.848 392.97 15.512 393.642 15.512C394.314 15.512 394.65 15.848 394.65 16.52V33.128C394.65 34.5893 394.303 35.6667 393.61 36.36C392.927 37.0533 391.85 37.4 390.378 37.4H384.426ZM386.09 28.984H387.306C388.884 28.984 390.164 28.7493 391.146 28.28C392.138 27.8107 392.634 27.096 392.634 26.136V20.44C392.634 19.352 392.303 18.5947 391.642 18.168C390.991 17.7413 390.015 17.528 388.714 17.528H386.09C384.618 17.528 383.594 17.8053 383.018 18.36C382.452 18.9147 382.17 19.944 382.17 21.448V25.096C382.17 26.5467 382.452 27.56 383.018 28.136C383.594 28.7013 384.618 28.984 386.09 28.984Z" fill="#CADFDF"/>
<path d="M439.04 31C437.067 31 435.584 30.5893 434.592 29.768C433.6 28.9467 433.035 27.6453 432.896 25.864C432.875 25.5227 432.949 25.2613 433.12 25.08C433.291 24.8987 433.541 24.808 433.872 24.808C434.501 24.808 434.848 25.144 434.912 25.816C435.008 27.0213 435.365 27.8533 435.984 28.312C436.613 28.76 437.632 28.984 439.04 28.984H440.8C441.867 28.984 442.704 28.856 443.312 28.6C443.92 28.344 444.347 27.9173 444.592 27.32C444.848 26.712 444.976 25.8747 444.976 24.808V11.032C444.976 10.36 445.312 10.024 445.984 10.024C446.656 10.024 446.992 10.36 446.992 11.032V24.808C446.992 26.9627 446.496 28.536 445.504 29.528C444.523 30.5093 442.955 31 440.8 31H439.04ZM457.073 31C455.377 31 454.123 30.5947 453.312 29.784C452.502 28.9733 452.097 27.72 452.097 26.024C452.097 24.3173 452.502 23.0587 453.312 22.248C454.123 21.4373 455.377 21.032 457.073 21.032H464.193C464.15 19.72 463.835 18.808 463.249 18.296C462.673 17.784 461.681 17.528 460.273 17.528H458.417C457.158 17.528 456.23 17.6507 455.633 17.896C455.046 18.1307 454.667 18.5413 454.497 19.128C454.39 19.448 454.257 19.6827 454.097 19.832C453.947 19.9707 453.718 20.04 453.409 20.04C453.078 20.04 452.817 19.9493 452.625 19.768C452.443 19.576 452.379 19.32 452.433 19C452.635 17.784 453.227 16.8987 454.209 16.344C455.19 15.7893 456.593 15.512 458.417 15.512H460.273C462.321 15.512 463.819 15.992 464.769 16.952C465.729 17.9013 466.208 19.4 466.208 21.448V29.992C466.208 30.664 465.873 31 465.201 31C464.529 31 464.193 30.664 464.193 29.992V28.68C463.137 30.2267 461.361 31 458.865 31H457.073ZM457.073 28.984H458.865C459.825 28.984 460.678 28.8827 461.425 28.68C462.182 28.4773 462.801 28.1413 463.281 27.672C463.771 27.2027 464.075 26.568 464.193 25.768V23.048H457.073C455.931 23.048 455.153 23.256 454.737 23.672C454.321 24.088 454.113 24.872 454.113 26.024C454.113 27.1653 454.321 27.944 454.737 28.36C455.153 28.776 455.931 28.984 457.073 28.984ZM477.776 30.248C477.658 30.5253 477.498 30.7227 477.296 30.84C477.104 30.9467 476.864 31 476.576 31C476.042 31 475.664 30.7387 475.44 30.216L469.664 16.936C469.397 16.296 469.578 15.8587 470.208 15.624C470.816 15.3467 471.253 15.5227 471.52 16.152L477.168 29.128H476.064L482.128 16.12C482.266 15.832 482.453 15.6453 482.688 15.56C482.922 15.464 483.184 15.4853 483.472 15.624C484.08 15.9013 484.245 16.3493 483.968 16.968L477.776 30.248ZM492.416 31C490.72 31 489.467 30.5947 488.656 29.784C487.846 28.9733 487.44 27.72 487.44 26.024C487.44 24.3173 487.846 23.0587 488.656 22.248C489.467 21.4373 490.72 21.032 492.416 21.032H499.536C499.494 19.72 499.179 18.808 498.592 18.296C498.016 17.784 497.024 17.528 495.616 17.528H493.76C492.502 17.528 491.574 17.6507 490.976 17.896C490.39 18.1307 490.011 18.5413 489.84 19.128C489.734 19.448 489.6 19.6827 489.44 19.832C489.291 19.9707 489.062 20.04 488.752 20.04C488.422 20.04 488.16 19.9493 487.968 19.768C487.787 19.576 487.723 19.32 487.776 19C487.979 17.784 488.571 16.8987 489.552 16.344C490.534 15.7893 491.936 15.512 493.76 15.512H495.616C497.664 15.512 499.163 15.992 500.112 16.952C501.072 17.9013 501.552 19.4 501.552 21.448V29.992C501.552 30.664 501.216 31 500.544 31C499.872 31 499.536 30.664 499.536 29.992V28.68C498.48 30.2267 496.704 31 494.208 31H492.416ZM492.416 28.984H494.208C495.168 28.984 496.022 28.8827 496.768 28.68C497.526 28.4773 498.144 28.1413 498.624 27.672C499.115 27.2027 499.419 26.568 499.536 25.768V23.048H492.416C491.275 23.048 490.496 23.256 490.08 23.672C489.664 24.088 489.456 24.872 489.456 26.024C489.456 27.1653 489.664 27.944 490.08 28.36C490.496 28.776 491.275 28.984 492.416 28.984ZM512.792 30.984C510.914 30.984 509.496 30.5787 508.536 29.768C507.586 28.9573 507.048 27.688 506.92 25.96C506.898 25.6293 506.978 25.3733 507.16 25.192C507.341 25.0107 507.592 24.92 507.912 24.92C508.232 24.92 508.472 25.0053 508.632 25.176C508.802 25.3467 508.909 25.592 508.952 25.912C509.026 27.0533 509.352 27.848 509.928 28.296C510.504 28.744 511.458 28.968 512.792 28.968H517.4C518.872 28.968 519.885 28.6907 520.44 28.136C521.005 27.5707 521.288 26.5627 521.288 25.112C521.288 23.64 521 22.6267 520.424 22.072C519.858 21.5067 518.85 21.224 517.4 21.224H513.16C511.229 21.224 509.81 20.7707 508.904 19.864C507.997 18.9467 507.544 17.528 507.544 15.608C507.544 13.688 507.992 12.28 508.888 11.384C509.794 10.4773 511.208 10.024 513.128 10.024H517.384C519.144 10.024 520.472 10.408 521.368 11.176C522.274 11.9333 522.792 13.1227 522.92 14.744C522.952 15.064 522.877 15.32 522.696 15.512C522.514 15.6933 522.258 15.784 521.928 15.784C521.618 15.784 521.378 15.6987 521.208 15.528C521.037 15.3467 520.936 15.1013 520.904 14.792C520.818 13.7573 520.509 13.0427 519.976 12.648C519.442 12.2427 518.578 12.04 517.384 12.04H513.128C511.762 12.04 510.824 12.3013 510.312 12.824C509.81 13.336 509.56 14.264 509.56 15.608C509.56 16.952 509.816 17.8907 510.328 18.424C510.85 18.9467 511.794 19.208 513.16 19.208H517.4C519.416 19.208 520.904 19.688 521.864 20.648C522.824 21.5973 523.304 23.0853 523.304 25.112C523.304 27.128 522.824 28.6107 521.864 29.56C520.914 30.5093 519.426 30.984 517.4 30.984H512.792ZM534.371 31C532.334 31 530.835 30.52 529.875 29.56C528.915 28.6 528.435 27.1013 528.435 25.064V21.416C528.435 19.368 528.91 17.8693 529.859 16.92C530.819 15.96 532.323 15.4907 534.371 15.512H536.995C538.574 15.512 539.79 15.7787 540.643 16.312C541.496 16.8347 542.019 17.6613 542.211 18.792C542.275 19.1227 542.211 19.384 542.019 19.576C541.838 19.7573 541.571 19.848 541.219 19.848C540.91 19.848 540.68 19.768 540.531 19.608C540.382 19.4373 540.259 19.208 540.163 18.92C540.035 18.408 539.726 18.0507 539.235 17.848C538.755 17.6347 538.008 17.528 536.995 17.528H534.371C532.899 17.5067 531.875 17.7787 531.299 18.344C530.734 18.8987 530.451 19.9227 530.451 21.416V25.064C530.451 26.536 530.734 27.56 531.299 28.136C531.875 28.7013 532.899 28.984 534.371 28.984H536.995C538.008 28.984 538.755 28.8827 539.235 28.68C539.726 28.4667 540.035 28.104 540.163 27.592C540.259 27.2827 540.382 27.0533 540.531 26.904C540.691 26.744 540.926 26.664 541.235 26.664C541.576 26.664 541.838 26.7547 542.019 26.936C542.211 27.1173 542.275 27.3787 542.211 27.72C542.019 28.8293 541.496 29.656 540.643 30.2C539.79 30.7333 538.574 31 536.995 31H534.371ZM548.581 31C547.909 31 547.573 30.664 547.573 29.992V16.52C547.573 15.848 547.909 15.512 548.581 15.512C549.253 15.512 549.589 15.848 549.589 16.52V18.568C550.175 17.576 550.981 16.8187 552.005 16.296C553.029 15.7733 554.229 15.512 555.605 15.512C556.277 15.512 556.613 15.848 556.613 16.52C556.613 17.192 556.277 17.528 555.605 17.528C553.727 17.528 552.277 17.928 551.253 18.728C550.239 19.528 549.685 20.6427 549.589 22.072V29.992C549.589 30.664 549.253 31 548.581 31ZM561.174 31C560.503 31 560.167 30.664 560.167 29.992V16.52C560.167 15.848 560.503 15.512 561.174 15.512C561.847 15.512 562.183 15.848 562.183 16.52V29.992C562.183 30.664 561.847 31 561.174 31ZM560.791 12.696C559.959 12.696 559.543 12.2747 559.543 11.432V10.632C559.543 9.81067 559.959 9.4 560.791 9.4H561.575C562.375 9.4 562.775 9.81067 562.775 10.632V11.432C562.775 12.2747 562.375 12.696 561.575 12.696H560.791ZM569.393 37.4C568.721 37.4 568.385 37.064 568.385 36.392V16.52C568.385 15.848 568.721 15.512 569.393 15.512C570.065 15.512 570.401 15.848 570.401 16.52V17.592C570.913 16.9093 571.607 16.392 572.481 16.04C573.367 15.688 574.449 15.512 575.729 15.512H576.945C578.993 15.512 580.492 15.992 581.441 16.952C582.401 17.9013 582.881 19.4 582.881 21.448V25.064C582.881 27.1013 582.401 28.6 581.441 29.56C580.492 30.52 578.993 31 576.945 31H570.401V36.392C570.401 37.064 570.065 37.4 569.393 37.4ZM570.401 28.984H576.945C578.428 28.984 579.452 28.7013 580.017 28.136C580.583 27.56 580.865 26.536 580.865 25.064V21.448C580.865 19.9653 580.583 18.9413 580.017 18.376C579.452 17.8107 578.428 17.528 576.945 17.528H575.729C574.151 17.528 572.892 17.7573 571.953 18.216C571.025 18.6747 570.508 19.3893 570.401 20.36V28.984ZM594.317 31C592.301 31 590.823 30.5307 589.885 29.592C588.946 28.6533 588.477 27.1867 588.477 25.192V17.528H586.685C586.013 17.528 585.677 17.192 585.677 16.52C585.677 15.848 586.013 15.512 586.685 15.512H588.477V12.44C588.477 11.768 588.813 11.432 589.485 11.432C590.157 11.432 590.493 11.768 590.493 12.44V15.512H594.397C595.069 15.512 595.405 15.848 595.405 16.52C595.405 17.192 595.069 17.528 594.397 17.528H590.493V25.192C590.493 26.632 590.77 27.624 591.325 28.168C591.879 28.712 592.877 28.984 594.317 28.984C594.669 28.984 594.925 29.0693 595.085 29.24C595.255 29.4 595.341 29.6507 595.341 29.992C595.341 30.664 594.999 31 594.317 31Z" fill="#CADFDF"/>
<path d="M648.056 31.048C647.789 31.208 647.533 31.256 647.288 31.192C647.053 31.1387 646.851 30.984 646.68 30.728L641.528 22.408H636.12V29.992C636.12 30.664 635.784 31 635.112 31C634.44 31 634.104 30.664 634.104 29.992V11.032C634.104 10.36 634.44 10.024 635.112 10.024H642.6C644.467 10.024 645.885 10.5093 646.856 11.48C647.827 12.4507 648.312 13.8693 648.312 15.736V16.696C648.312 18.328 647.933 19.6187 647.176 20.568C646.429 21.5173 645.325 22.0987 643.864 22.312L648.408 29.672C648.739 30.2373 648.621 30.696 648.056 31.048ZM636.12 20.392H642.6C643.912 20.392 644.856 20.104 645.432 19.528C646.008 18.9413 646.296 17.9973 646.296 16.696V15.736C646.296 14.4347 646.008 13.496 645.432 12.92C644.856 12.3333 643.912 12.04 642.6 12.04H636.12V20.392ZM654.889 24.056V25.096C654.889 26.5573 655.171 27.5707 655.737 28.136C656.313 28.7013 657.337 28.984 658.809 28.984H661.433C662.702 28.984 663.625 28.8347 664.201 28.536C664.787 28.2373 665.145 27.72 665.273 26.984C665.347 26.664 665.465 26.424 665.625 26.264C665.785 26.104 666.025 26.024 666.345 26.024C666.675 26.024 666.926 26.1147 667.097 26.296C667.278 26.4667 667.342 26.7227 667.289 27.064C667.118 28.3973 666.547 29.3893 665.577 30.04C664.617 30.68 663.235 31 661.433 31H658.809C656.771 31 655.273 30.52 654.312 29.56C653.353 28.6 652.873 27.112 652.873 25.096V21.448C652.873 19.3787 653.353 17.8693 654.312 16.92C655.273 15.96 656.771 15.4907 658.809 15.512H661.433C663.481 15.512 664.979 15.992 665.929 16.952C666.889 17.9013 667.369 19.4 667.369 21.448V23.048C667.369 23.72 667.033 24.056 666.361 24.056H654.889ZM658.809 17.528C657.337 17.5067 656.313 17.7787 655.737 18.344C655.171 18.9093 654.889 19.944 654.889 21.448V22.04H665.353V21.448C665.353 19.9653 665.07 18.9413 664.505 18.376C663.939 17.8107 662.915 17.528 661.433 17.528H658.809ZM677.698 31C676.002 31 674.748 30.5947 673.938 29.784C673.127 28.9733 672.722 27.72 672.722 26.024C672.722 24.3173 673.127 23.0587 673.938 22.248C674.748 21.4373 676.002 21.032 677.698 21.032H684.818C684.775 19.72 684.46 18.808 683.874 18.296C683.298 17.784 682.306 17.528 680.898 17.528H679.042C677.783 17.528 676.855 17.6507 676.258 17.896C675.671 18.1307 675.292 18.5413 675.122 19.128C675.015 19.448 674.882 19.6827 674.722 19.832C674.572 19.9707 674.343 20.04 674.034 20.04C673.703 20.04 673.442 19.9493 673.25 19.768C673.068 19.576 673.004 19.32 673.058 19C673.26 17.784 673.852 16.8987 674.834 16.344C675.815 15.7893 677.218 15.512 679.042 15.512H680.898C682.946 15.512 684.444 15.992 685.394 16.952C686.354 17.9013 686.833 19.4 686.833 21.448V29.992C686.833 30.664 686.498 31 685.826 31C685.154 31 684.818 30.664 684.818 29.992V28.68C683.762 30.2267 681.986 31 679.49 31H677.698ZM677.698 28.984H679.49C680.45 28.984 681.303 28.8827 682.05 28.68C682.807 28.4773 683.426 28.1413 683.906 27.672C684.396 27.2027 684.7 26.568 684.818 25.768V23.048H677.698C676.556 23.048 675.778 23.256 675.362 23.672C674.946 24.088 674.738 24.872 674.738 26.024C674.738 27.1653 674.946 27.944 675.362 28.36C675.778 28.776 676.556 28.984 677.698 28.984ZM698.121 31C696.084 31 694.585 30.52 693.625 29.56C692.665 28.6 692.185 27.1013 692.185 25.064V21.416C692.185 19.368 692.66 17.8693 693.609 16.92C694.569 15.96 696.073 15.4907 698.121 15.512H700.745C702.324 15.512 703.54 15.7787 704.393 16.312C705.246 16.8347 705.769 17.6613 705.961 18.792C706.025 19.1227 705.961 19.384 705.769 19.576C705.588 19.7573 705.321 19.848 704.969 19.848C704.66 19.848 704.43 19.768 704.281 19.608C704.132 19.4373 704.009 19.208 703.913 18.92C703.785 18.408 703.476 18.0507 702.985 17.848C702.505 17.6347 701.758 17.528 700.745 17.528H698.121C696.649 17.5067 695.625 17.7787 695.049 18.344C694.484 18.8987 694.201 19.9227 694.201 21.416V25.064C694.201 26.536 694.484 27.56 695.049 28.136C695.625 28.7013 696.649 28.984 698.121 28.984H700.745C701.758 28.984 702.505 28.8827 702.985 28.68C703.476 28.4667 703.785 28.104 703.913 27.592C704.009 27.2827 704.132 27.0533 704.281 26.904C704.441 26.744 704.676 26.664 704.985 26.664C705.326 26.664 705.588 26.7547 705.769 26.936C705.961 27.1173 706.025 27.3787 705.961 27.72C705.769 28.8293 705.246 29.656 704.393 30.2C703.54 30.7333 702.324 31 700.745 31H698.121ZM717.723 31C715.707 31 714.229 30.5307 713.291 29.592C712.352 28.6533 711.883 27.1867 711.883 25.192V17.528H710.091C709.419 17.528 709.083 17.192 709.083 16.52C709.083 15.848 709.419 15.512 710.091 15.512H711.883V12.44C711.883 11.768 712.219 11.432 712.891 11.432C713.563 11.432 713.899 11.768 713.899 12.44V15.512H717.803C718.475 15.512 718.811 15.848 718.811 16.52C718.811 17.192 718.475 17.528 717.803 17.528H713.899V25.192C713.899 26.632 714.176 27.624 714.731 28.168C715.285 28.712 716.283 28.984 717.723 28.984C718.075 28.984 718.331 29.0693 718.491 29.24C718.661 29.4 718.747 29.6507 718.747 29.992C718.747 30.664 718.405 31 717.723 31Z" fill="#CADFDF"/>
<path d="M772.056 31.048C771.789 31.208 771.533 31.256 771.288 31.192C771.053 31.1387 770.851 30.984 770.68 30.728L765.528 22.408H760.12V29.992C760.12 30.664 759.784 31 759.112 31C758.44 31 758.104 30.664 758.104 29.992V11.032C758.104 10.36 758.44 10.024 759.112 10.024H766.6C768.467 10.024 769.885 10.5093 770.856 11.48C771.827 12.4507 772.312 13.8693 772.312 15.736V16.696C772.312 18.328 771.933 19.6187 771.176 20.568C770.429 21.5173 769.325 22.0987 767.864 22.312L772.408 29.672C772.739 30.2373 772.621 30.696 772.056 31.048ZM760.12 20.392H766.6C767.912 20.392 768.856 20.104 769.432 19.528C770.008 18.9413 770.296 17.9973 770.296 16.696V15.736C770.296 14.4347 770.008 13.496 769.432 12.92C768.856 12.3333 767.912 12.04 766.6 12.04H760.12V20.392ZM778.889 24.056V25.096C778.889 26.5573 779.171 27.5707 779.737 28.136C780.313 28.7013 781.337 28.984 782.809 28.984H785.433C786.702 28.984 787.625 28.8347 788.201 28.536C788.787 28.2373 789.145 27.72 789.273 26.984C789.347 26.664 789.465 26.424 789.625 26.264C789.785 26.104 790.025 26.024 790.345 26.024C790.675 26.024 790.926 26.1147 791.097 26.296C791.278 26.4667 791.342 26.7227 791.289 27.064C791.118 28.3973 790.547 29.3893 789.577 30.04C788.617 30.68 787.235 31 785.433 31H782.809C780.771 31 779.273 30.52 778.312 29.56C777.353 28.6 776.873 27.112 776.873 25.096V21.448C776.873 19.3787 777.353 17.8693 778.312 16.92C779.273 15.96 780.771 15.4907 782.809 15.512H785.433C787.481 15.512 788.979 15.992 789.929 16.952C790.889 17.9013 791.369 19.4 791.369 21.448V23.048C791.369 23.72 791.033 24.056 790.361 24.056H778.889ZM782.809 17.528C781.337 17.5067 780.313 17.7787 779.737 18.344C779.171 18.9093 778.889 19.944 778.889 21.448V22.04H789.353V21.448C789.353 19.9653 789.07 18.9413 788.505 18.376C787.939 17.8107 786.915 17.528 785.433 17.528H782.809ZM802.434 31C800.396 31 798.898 30.52 797.938 29.56C796.978 28.6 796.498 27.1013 796.498 25.064V21.448C796.498 19.4 796.978 17.9013 797.938 16.952C798.898 15.992 800.396 15.512 802.434 15.512H808.978V9.704C808.978 9.032 809.314 8.696 809.986 8.696C810.658 8.696 810.994 9.032 810.994 9.704V29.992C810.994 30.664 810.658 31 809.986 31C809.314 31 808.978 30.664 808.978 29.992V29C808.508 29.6507 807.842 30.1467 806.978 30.488C806.114 30.8293 805.004 31 803.65 31H802.434ZM802.434 28.984H803.65C805.228 28.984 806.508 28.7493 807.49 28.28C808.482 27.8 808.978 27.0853 808.978 26.136V17.528H802.434C800.962 17.528 799.938 17.816 799.362 18.392C798.796 18.9573 798.514 19.976 798.514 21.448V25.064C798.514 26.536 798.796 27.56 799.362 28.136C799.938 28.7013 800.962 28.984 802.434 28.984ZM829.749 15.512C830.421 15.512 830.757 15.848 830.757 16.52V29.992C830.757 30.664 830.421 31 829.749 31C829.077 31 828.741 30.664 828.741 29.992V28.808C827.685 30.2693 825.909 31 823.413 31H822.517C820.469 31 818.965 30.5253 818.005 29.576C817.056 28.616 816.581 27.112 816.581 25.064V16.52C816.581 15.848 816.917 15.512 817.589 15.512C818.261 15.512 818.597 15.848 818.597 16.52V25.064C818.597 26.5467 818.88 27.5707 819.445 28.136C820.021 28.7013 821.045 28.984 822.517 28.984H823.413C824.939 28.984 826.176 28.76 827.125 28.312C828.075 27.864 828.613 27.1653 828.741 26.216V16.52C828.741 15.848 829.077 15.512 829.749 15.512ZM835.907 30.744C835.384 30.328 835.32 29.8533 835.715 29.32L840.659 22.84L836.259 17.176C835.843 16.6533 835.902 16.184 836.435 15.768C836.968 15.352 837.438 15.4107 837.843 15.944L842.083 21.4L846.403 15.944C846.819 15.3893 847.294 15.3307 847.827 15.768C848.36 16.1733 848.419 16.6427 848.003 17.176L843.331 23.032L848.195 29.32C848.611 29.8533 848.558 30.3227 848.035 30.728C847.502 31.1547 847.027 31.096 846.611 30.552L841.939 24.504L837.315 30.536C836.91 31.08 836.44 31.1493 835.907 30.744Z" fill="#CADFDF"/>
<path d="M894.328 31.016C894.008 31.016 893.757 30.9307 893.576 30.76C893.405 30.5787 893.32 30.328 893.32 30.008V12.04H886.712C886.392 12.04 886.141 11.9547 885.96 11.784C885.789 11.6027 885.704 11.352 885.704 11.032C885.704 10.712 885.789 10.4667 885.96 10.296C886.141 10.1147 886.392 10.024 886.712 10.024H901.944C902.264 10.024 902.509 10.1147 902.68 10.296C902.861 10.4667 902.952 10.712 902.952 11.032C902.952 11.352 902.861 11.6027 902.68 11.784C902.509 11.9547 902.264 12.04 901.944 12.04H895.336V30.008C895.336 30.3173 895.245 30.5627 895.064 30.744C894.893 30.9253 894.648 31.016 894.328 31.016ZM907.197 37.4C905.746 37.4 904.669 37.048 903.965 36.344C903.272 35.64 902.925 34.5573 902.925 33.096C902.925 32.424 903.261 32.088 903.933 32.088C904.605 32.088 904.941 32.424 904.941 33.096C904.941 33.992 905.096 34.5947 905.405 34.904C905.714 35.224 906.312 35.384 907.197 35.384H912.957C913.842 35.384 914.44 35.224 914.749 34.904C915.058 34.5947 915.213 33.992 915.213 33.096V28.808C914.605 29.6613 913.853 30.2427 912.957 30.552C912.061 30.8613 911.037 31.016 909.885 31.016H908.765C906.749 31.016 905.272 30.5467 904.333 29.608C903.394 28.6693 902.925 27.2027 902.925 25.208V16.504C902.925 15.832 903.261 15.496 903.933 15.496C904.605 15.496 904.941 15.832 904.941 16.504V25.208C904.941 26.648 905.213 27.64 905.757 28.184C906.312 28.728 907.314 29 908.765 29H909.885C911.72 29 913.064 28.6853 913.917 28.056C914.781 27.4267 915.213 26.4773 915.213 25.208V16.504C915.213 15.832 915.549 15.496 916.221 15.496C916.893 15.496 917.229 15.832 917.229 16.504V33.096C917.229 34.5573 916.877 35.64 916.173 36.344C915.48 37.048 914.408 37.4 912.957 37.4H907.197ZM924.456 37.4C923.784 37.4 923.448 37.064 923.448 36.392V16.52C923.448 15.848 923.784 15.512 924.456 15.512C925.128 15.512 925.464 15.848 925.464 16.52V17.592C925.976 16.9093 926.669 16.392 927.544 16.04C928.429 15.688 929.512 15.512 930.792 15.512H932.008C934.056 15.512 935.554 15.992 936.504 16.952C937.464 17.9013 937.944 19.4 937.944 21.448V25.064C937.944 27.1013 937.464 28.6 936.504 29.56C935.554 30.52 934.056 31 932.008 31H925.464V36.392C925.464 37.064 925.128 37.4 924.456 37.4ZM925.464 28.984H932.008C933.49 28.984 934.514 28.7013 935.08 28.136C935.645 27.56 935.928 26.536 935.928 25.064V21.448C935.928 19.9653 935.645 18.9413 935.08 18.376C934.514 17.8107 933.49 17.528 932.008 17.528H930.792C929.213 17.528 927.954 17.7573 927.016 18.216C926.088 18.6747 925.57 19.3893 925.464 20.36V28.984ZM945.076 24.056V25.096C945.076 26.5573 945.359 27.5707 945.924 28.136C946.5 28.7013 947.524 28.984 948.996 28.984H951.62C952.889 28.984 953.812 28.8347 954.388 28.536C954.975 28.2373 955.332 27.72 955.46 26.984C955.535 26.664 955.652 26.424 955.812 26.264C955.972 26.104 956.212 26.024 956.532 26.024C956.863 26.024 957.113 26.1147 957.284 26.296C957.465 26.4667 957.529 26.7227 957.476 27.064C957.305 28.3973 956.735 29.3893 955.764 30.04C954.804 30.68 953.423 31 951.62 31H948.996C946.959 31 945.46 30.52 944.5 29.56C943.54 28.6 943.06 27.112 943.06 25.096V21.448C943.06 19.3787 943.54 17.8693 944.5 16.92C945.46 15.96 946.959 15.4907 948.996 15.512H951.62C953.668 15.512 955.167 15.992 956.116 16.952C957.076 17.9013 957.556 19.4 957.556 21.448V23.048C957.556 23.72 957.22 24.056 956.548 24.056H945.076ZM948.996 17.528C947.524 17.5067 946.5 17.7787 945.924 18.344C945.359 18.9093 945.076 19.944 945.076 21.448V22.04H955.54V21.448C955.54 19.9653 955.257 18.9413 954.692 18.376C954.127 17.8107 953.103 17.528 951.62 17.528H948.996ZM968.573 30.984C966.696 30.984 965.277 30.5787 964.317 29.768C963.368 28.9573 962.829 27.688 962.701 25.96C962.68 25.6293 962.76 25.3733 962.941 25.192C963.122 25.0107 963.373 24.92 963.693 24.92C964.013 24.92 964.253 25.0053 964.413 25.176C964.584 25.3467 964.69 25.592 964.733 25.912C964.808 27.0533 965.133 27.848 965.709 28.296C966.285 28.744 967.24 28.968 968.573 28.968H973.181C974.653 28.968 975.666 28.6907 976.221 28.136C976.786 27.5707 977.069 26.5627 977.069 25.112C977.069 23.64 976.781 22.6267 976.205 22.072C975.64 21.5067 974.632 21.224 973.181 21.224H968.941C967.01 21.224 965.592 20.7707 964.685 19.864C963.778 18.9467 963.325 17.528 963.325 15.608C963.325 13.688 963.773 12.28 964.669 11.384C965.576 10.4773 966.989 10.024 968.909 10.024H973.165C974.925 10.024 976.253 10.408 977.149 11.176C978.056 11.9333 978.573 13.1227 978.701 14.744C978.733 15.064 978.658 15.32 978.477 15.512C978.296 15.6933 978.04 15.784 977.709 15.784C977.4 15.784 977.16 15.6987 976.989 15.528C976.818 15.3467 976.717 15.1013 976.685 14.792C976.6 13.7573 976.29 13.0427 975.757 12.648C975.224 12.2427 974.36 12.04 973.165 12.04H968.909C967.544 12.04 966.605 12.3013 966.093 12.824C965.592 13.336 965.341 14.264 965.341 15.608C965.341 16.952 965.597 17.8907 966.109 18.424C966.632 18.9467 967.576 19.208 968.941 19.208H973.181C975.197 19.208 976.685 19.688 977.645 20.648C978.605 21.5973 979.085 23.0853 979.085 25.112C979.085 27.128 978.605 28.6107 977.645 29.56C976.696 30.5093 975.208 30.984 973.181 30.984H968.573ZM990.152 31C988.115 31 986.616 30.52 985.656 29.56C984.696 28.6 984.216 27.1013 984.216 25.064V21.416C984.216 19.368 984.691 17.8693 985.64 16.92C986.6 15.96 988.104 15.4907 990.152 15.512H992.776C994.355 15.512 995.571 15.7787 996.424 16.312C997.278 16.8347 997.8 17.6613 997.992 18.792C998.056 19.1227 997.992 19.384 997.8 19.576C997.619 19.7573 997.352 19.848 997 19.848C996.691 19.848 996.462 19.768 996.312 19.608C996.163 19.4373 996.04 19.208 995.944 18.92C995.816 18.408 995.507 18.0507 995.016 17.848C994.536 17.6347 993.79 17.528 992.776 17.528H990.152C988.68 17.5067 987.656 17.7787 987.08 18.344C986.515 18.8987 986.232 19.9227 986.232 21.416V25.064C986.232 26.536 986.515 27.56 987.08 28.136C987.656 28.7013 988.68 28.984 990.152 28.984H992.776C993.79 28.984 994.536 28.8827 995.016 28.68C995.507 28.4667 995.816 28.104 995.944 27.592C996.04 27.2827 996.163 27.0533 996.312 26.904C996.472 26.744 996.707 26.664 997.016 26.664C997.358 26.664 997.619 26.7547 997.8 26.936C997.992 27.1173 998.056 27.3787 997.992 27.72C997.8 28.8293 997.278 29.656 996.424 30.2C995.571 30.7333 994.355 31 992.776 31H990.152ZM1004.36 31C1003.69 31 1003.35 30.664 1003.35 29.992V16.52C1003.35 15.848 1003.69 15.512 1004.36 15.512C1005.03 15.512 1005.37 15.848 1005.37 16.52V18.568C1005.96 17.576 1006.76 16.8187 1007.79 16.296C1008.81 15.7733 1010.01 15.512 1011.39 15.512C1012.06 15.512 1012.39 15.848 1012.39 16.52C1012.39 17.192 1012.06 17.528 1011.39 17.528C1009.51 17.528 1008.06 17.928 1007.03 18.728C1006.02 19.528 1005.47 20.6427 1005.37 22.072V29.992C1005.37 30.664 1005.03 31 1004.36 31ZM1016.96 31C1016.28 31 1015.95 30.664 1015.95 29.992V16.52C1015.95 15.848 1016.28 15.512 1016.96 15.512C1017.63 15.512 1017.96 15.848 1017.96 16.52V29.992C1017.96 30.664 1017.63 31 1016.96 31ZM1016.57 12.696C1015.74 12.696 1015.32 12.2747 1015.32 11.432V10.632C1015.32 9.81067 1015.74 9.4 1016.57 9.4H1017.36C1018.16 9.4 1018.56 9.81067 1018.56 10.632V11.432C1018.56 12.2747 1018.16 12.696 1017.36 12.696H1016.57ZM1025.17 37.4C1024.5 37.4 1024.17 37.064 1024.17 36.392V16.52C1024.17 15.848 1024.5 15.512 1025.17 15.512C1025.85 15.512 1026.18 15.848 1026.18 16.52V17.592C1026.69 16.9093 1027.39 16.392 1028.26 16.04C1029.15 15.688 1030.23 15.512 1031.51 15.512H1032.73C1034.77 15.512 1036.27 15.992 1037.22 16.952C1038.18 17.9013 1038.66 19.4 1038.66 21.448V25.064C1038.66 27.1013 1038.18 28.6 1037.22 29.56C1036.27 30.52 1034.77 31 1032.73 31H1026.18V36.392C1026.18 37.064 1025.85 37.4 1025.17 37.4ZM1026.18 28.984H1032.73C1034.21 28.984 1035.23 28.7013 1035.8 28.136C1036.36 27.56 1036.65 26.536 1036.65 25.064V21.448C1036.65 19.9653 1036.36 18.9413 1035.8 18.376C1035.23 17.8107 1034.21 17.528 1032.73 17.528H1031.51C1029.93 17.528 1028.67 17.7573 1027.73 18.216C1026.81 18.6747 1026.29 19.3893 1026.18 20.36V28.984ZM1050.1 31C1048.08 31 1046.6 30.5307 1045.67 29.592C1044.73 28.6533 1044.26 27.1867 1044.26 25.192V17.528H1042.47C1041.79 17.528 1041.46 17.192 1041.46 16.52C1041.46 15.848 1041.79 15.512 1042.47 15.512H1044.26V12.44C1044.26 11.768 1044.59 11.432 1045.27 11.432C1045.94 11.432 1046.27 11.768 1046.27 12.44V15.512H1050.18C1050.85 15.512 1051.19 15.848 1051.19 16.52C1051.19 17.192 1050.85 17.528 1050.18 17.528H1046.27V25.192C1046.27 26.632 1046.55 27.624 1047.11 28.168C1047.66 28.712 1048.66 28.984 1050.1 28.984C1050.45 28.984 1050.71 29.0693 1050.87 29.24C1051.04 29.4 1051.12 29.6507 1051.12 29.992C1051.12 30.664 1050.78 31 1050.1 31Z" fill="#CADFDF"/>
<path d="M1091.11 31C1090.44 31 1090.1 30.664 1090.1 29.992V11.032C1090.1 10.36 1090.44 10.024 1091.11 10.024H1102.73C1103.05 10.024 1103.29 10.1147 1103.46 10.296C1103.65 10.4667 1103.74 10.712 1103.74 11.032C1103.74 11.704 1103.4 12.04 1102.73 12.04H1092.12V19.384H1099.13C1099.8 19.384 1100.14 19.72 1100.14 20.392C1100.14 21.064 1099.8 21.4 1099.13 21.4H1092.12V29.992C1092.12 30.664 1091.78 31 1091.11 31ZM1107.86 31C1107.19 31 1106.85 30.664 1106.85 29.992V16.52C1106.85 15.848 1107.19 15.512 1107.86 15.512C1108.53 15.512 1108.87 15.848 1108.87 16.52V29.992C1108.87 30.664 1108.53 31 1107.86 31ZM1107.48 12.696C1106.65 12.696 1106.23 12.2747 1106.23 11.432V10.632C1106.23 9.81067 1106.65 9.4 1107.48 9.4H1108.26C1109.06 9.4 1109.46 9.81067 1109.46 10.632V11.432C1109.46 12.2747 1109.06 12.696 1108.26 12.696H1107.48ZM1118.8 37.4C1117.53 37.4 1116.56 37.1387 1115.87 36.616C1115.19 36.0933 1114.77 35.288 1114.61 34.2C1114.57 33.8587 1114.63 33.592 1114.8 33.4C1114.98 33.2187 1115.24 33.128 1115.58 33.128C1115.9 33.128 1116.14 33.208 1116.29 33.368C1116.44 33.5387 1116.55 33.7893 1116.62 34.12C1116.72 34.6 1116.93 34.9307 1117.26 35.112C1117.6 35.2933 1118.11 35.384 1118.8 35.384H1124.75C1125.65 35.384 1126.25 35.2293 1126.54 34.92C1126.85 34.6107 1127.01 34.0133 1127.01 33.128V28.824C1126.5 29.5387 1125.8 30.0827 1124.91 30.456C1124.04 30.8187 1122.96 31 1121.68 31H1120.46C1118.43 31 1116.93 30.52 1115.97 29.56C1115.01 28.6 1114.53 27.112 1114.53 25.096V21.448C1114.53 19.3893 1115 17.8853 1115.95 16.936C1116.91 15.9867 1118.42 15.512 1120.46 15.512H1123.09C1124.04 15.512 1124.83 15.6453 1125.47 15.912C1126.11 16.168 1126.62 16.568 1127.01 17.112V16.52C1127.01 15.848 1127.34 15.512 1128.02 15.512C1128.69 15.512 1129.02 15.848 1129.02 16.52V33.128C1129.02 34.5893 1128.68 35.6667 1127.98 36.36C1127.3 37.0533 1126.22 37.4 1124.75 37.4H1118.8ZM1120.46 28.984H1121.68C1123.26 28.984 1124.54 28.7493 1125.52 28.28C1126.51 27.8107 1127.01 27.096 1127.01 26.136V20.44C1127.01 19.352 1126.68 18.5947 1126.02 18.168C1125.37 17.7413 1124.39 17.528 1123.09 17.528H1120.46C1118.99 17.528 1117.97 17.8053 1117.39 18.36C1116.83 18.9147 1116.54 19.944 1116.54 21.448V25.096C1116.54 26.5467 1116.83 27.56 1117.39 28.136C1117.97 28.7013 1118.99 28.984 1120.46 28.984ZM1152.13 15.496C1153.96 15.496 1155.26 15.944 1156.04 16.84C1156.83 17.736 1157.22 19.224 1157.22 21.304V30.008C1157.22 30.68 1156.88 31.016 1156.21 31.016C1155.54 31.016 1155.2 30.68 1155.2 30.008V21.304C1155.2 19.96 1154.96 18.9947 1154.48 18.408C1154.02 17.8107 1153.23 17.512 1152.13 17.512H1150.8C1149.47 17.512 1148.52 17.8107 1147.94 18.408C1147.36 18.9947 1147.08 19.96 1147.08 21.304V30.008C1147.08 30.68 1146.74 31.016 1146.07 31.016C1145.4 31.016 1145.06 30.68 1145.06 30.008V21.304C1145.06 19.96 1144.82 18.9947 1144.34 18.408C1143.87 17.8107 1143.09 17.512 1141.99 17.512H1140.66C1139.33 17.512 1138.37 17.8107 1137.8 18.408C1137.22 18.9947 1136.93 19.96 1136.93 21.304V30.008C1136.93 30.68 1136.6 31.016 1135.92 31.016C1135.25 31.016 1134.92 30.68 1134.92 30.008V16.52C1134.92 15.848 1135.25 15.512 1135.92 15.512C1136.6 15.512 1136.93 15.848 1136.93 16.52V17.592C1137.43 16.8453 1138.01 16.312 1138.66 15.992C1139.32 15.6613 1140.14 15.496 1141.11 15.496H1141.99C1143.17 15.496 1144.12 15.688 1144.82 16.072C1145.54 16.4453 1146.09 17.064 1146.48 17.928C1146.98 17.0533 1147.56 16.4293 1148.23 16.056C1148.9 15.6827 1149.76 15.496 1150.8 15.496H1152.13ZM1167.17 31C1165.47 31 1164.22 30.5947 1163.41 29.784C1162.6 28.9733 1162.19 27.72 1162.19 26.024C1162.19 24.3173 1162.6 23.0587 1163.41 22.248C1164.22 21.4373 1165.47 21.032 1167.17 21.032H1174.29C1174.24 19.72 1173.93 18.808 1173.34 18.296C1172.77 17.784 1171.77 17.528 1170.37 17.528H1168.51C1167.25 17.528 1166.32 17.6507 1165.73 17.896C1165.14 18.1307 1164.76 18.5413 1164.59 19.128C1164.48 19.448 1164.35 19.6827 1164.19 19.832C1164.04 19.9707 1163.81 20.04 1163.5 20.04C1163.17 20.04 1162.91 19.9493 1162.72 19.768C1162.54 19.576 1162.47 19.32 1162.53 19C1162.73 17.784 1163.32 16.8987 1164.3 16.344C1165.28 15.7893 1166.69 15.512 1168.51 15.512H1170.37C1172.41 15.512 1173.91 15.992 1174.86 16.952C1175.82 17.9013 1176.3 19.4 1176.3 21.448V29.992C1176.3 30.664 1175.97 31 1175.29 31C1174.62 31 1174.29 30.664 1174.29 29.992V28.68C1173.23 30.2267 1171.45 31 1168.96 31H1167.17ZM1167.17 28.984H1168.96C1169.92 28.984 1170.77 28.8827 1171.52 28.68C1172.28 28.4773 1172.89 28.1413 1173.37 27.672C1173.86 27.2027 1174.17 26.568 1174.29 25.768V23.048H1167.17C1166.02 23.048 1165.25 23.256 1164.83 23.672C1164.41 24.088 1164.21 24.872 1164.21 26.024C1164.21 27.1653 1164.41 27.944 1164.83 28.36C1165.25 28.776 1166.02 28.984 1167.17 28.984Z" fill="#CADFDF"/>
</svg>
