<svg width="976" height="29" viewBox="0 0 976 29" fill="none" xmlns="http://www.w3.org/2000/svg">
<path d="M3.084 23C2.868 23 2.688 22.928 2.544 22.784C2.4 22.64 2.328 22.46 2.328 22.244V8.024C2.328 7.808 2.4 7.628 2.544 7.484C2.688 7.34 2.868 7.268 3.084 7.268C3.3 7.268 3.48 7.34 3.624 7.484C3.768 7.628 3.84 7.808 3.84 8.024V14.276H13.812V8.024C13.812 7.808 13.884 7.628 14.028 7.484C14.172 7.34 14.352 7.268 14.568 7.268C14.784 7.268 14.964 7.34 15.108 7.484C15.252 7.628 15.324 7.808 15.324 8.024V22.244C15.324 22.46 15.252 22.64 15.108 22.784C14.964 22.928 14.784 23 14.568 23C14.352 23 14.172 22.928 14.028 22.784C13.884 22.64 13.812 22.46 13.812 22.244V15.788H3.84V22.244C3.84 22.46 3.768 22.64 3.624 22.784C3.48 22.928 3.3 23 3.084 23ZM24.6444 23.012C24.4044 23.012 24.2164 22.948 24.0804 22.82C23.9524 22.684 23.8884 22.496 23.8884 22.256V8.78H18.9324C18.6924 8.78 18.5044 8.716 18.3684 8.588C18.2404 8.452 18.1764 8.264 18.1764 8.024C18.1764 7.784 18.2404 7.6 18.3684 7.472C18.5044 7.336 18.6924 7.268 18.9324 7.268H30.3564C30.5964 7.268 30.7804 7.336 30.9084 7.472C31.0444 7.6 31.1124 7.784 31.1124 8.024C31.1124 8.264 31.0444 8.452 30.9084 8.588C30.7804 8.716 30.5964 8.78 30.3564 8.78H25.4004V22.256C25.4004 22.488 25.3324 22.672 25.1964 22.808C25.0684 22.944 24.8844 23.012 24.6444 23.012ZM34.7246 23C34.2206 23 33.9686 22.748 33.9686 22.244V8.024C33.9686 7.52 34.2206 7.268 34.7246 7.268C35.0766 7.268 35.3606 7.432 35.5766 7.76L41.4446 16.688L41.1086 16.736L47.0006 7.76C47.2086 7.432 47.5126 7.268 47.9126 7.268C48.3446 7.268 48.5606 7.52 48.5606 8.024V22.244C48.5606 22.748 48.3086 23 47.8046 23C47.3006 23 47.0486 22.748 47.0486 22.244V9.536L47.5046 9.692L42.1286 17.792C41.9126 18.12 41.6086 18.284 41.2166 18.284C40.9046 18.284 40.6406 18.12 40.4246 17.792L35.0486 9.692L35.4806 9.836V22.244C35.4806 22.748 35.2286 23 34.7246 23ZM53.9668 23C53.4628 23 53.2108 22.748 53.2108 22.244V8.024C53.2108 7.52 53.4628 7.268 53.9668 7.268C54.4708 7.268 54.7228 7.52 54.7228 8.024V21.488H61.8028C62.3068 21.488 62.5588 21.74 62.5588 22.244C62.5588 22.748 62.3068 23 61.8028 23H53.9668Z" fill="#CADFDF"/>
<path d="M105.044 23C103.276 23 101.98 22.588 101.156 21.764C100.332 20.94 99.92 19.644 99.92 17.876V12.392C99.92 10.608 100.332 9.308 101.156 8.492C101.98 7.668 103.268 7.26 105.02 7.268H107.924C109.412 7.268 110.528 7.576 111.272 8.192C112.016 8.8 112.432 9.78 112.52 11.132C112.552 11.38 112.504 11.572 112.376 11.708C112.248 11.844 112.056 11.912 111.8 11.912C111.336 11.912 111.072 11.66 111.008 11.156C110.944 10.244 110.676 9.62 110.204 9.284C109.74 8.948 108.98 8.78 107.924 8.78H105.02C104.124 8.772 103.416 8.88 102.896 9.104C102.376 9.328 102 9.704 101.768 10.232C101.544 10.76 101.432 11.48 101.432 12.392V17.876C101.432 18.772 101.544 19.484 101.768 20.012C102 20.54 102.38 20.92 102.908 21.152C103.436 21.376 104.148 21.488 105.044 21.488H107.924C108.98 21.488 109.74 21.32 110.204 20.984C110.676 20.64 110.944 20.016 111.008 19.112C111.072 18.608 111.336 18.356 111.8 18.356C112.056 18.356 112.248 18.424 112.376 18.56C112.504 18.688 112.552 18.88 112.52 19.136C112.432 20.48 112.016 21.46 111.272 22.076C110.528 22.692 109.412 23 107.924 23H105.044ZM120.555 22.988C119.147 22.988 118.083 22.684 117.363 22.076C116.651 21.468 116.247 20.516 116.151 19.22C116.135 18.972 116.195 18.78 116.331 18.644C116.467 18.508 116.655 18.44 116.895 18.44C117.135 18.44 117.315 18.504 117.435 18.632C117.563 18.76 117.643 18.944 117.675 19.184C117.731 20.04 117.975 20.636 118.407 20.972C118.839 21.308 119.555 21.476 120.555 21.476H124.011C125.115 21.476 125.875 21.268 126.291 20.852C126.715 20.428 126.927 19.672 126.927 18.584C126.927 17.48 126.711 16.72 126.279 16.304C125.855 15.88 125.099 15.668 124.011 15.668H120.831C119.383 15.668 118.319 15.328 117.639 14.648C116.959 13.96 116.619 12.896 116.619 11.456C116.619 10.016 116.955 8.96 117.627 8.288C118.307 7.608 119.367 7.268 120.807 7.268H123.999C125.319 7.268 126.315 7.556 126.987 8.132C127.667 8.7 128.055 9.592 128.151 10.808C128.175 11.048 128.119 11.24 127.983 11.384C127.847 11.52 127.655 11.588 127.407 11.588C127.175 11.588 126.995 11.524 126.867 11.396C126.739 11.26 126.663 11.076 126.639 10.844C126.575 10.068 126.343 9.532 125.943 9.236C125.543 8.932 124.895 8.78 123.999 8.78H120.807C119.783 8.78 119.079 8.976 118.695 9.368C118.319 9.752 118.131 10.448 118.131 11.456C118.131 12.464 118.323 13.168 118.707 13.568C119.099 13.96 119.807 14.156 120.831 14.156H124.011C125.523 14.156 126.639 14.516 127.359 15.236C128.079 15.948 128.439 17.064 128.439 18.584C128.439 20.096 128.079 21.208 127.359 21.92C126.647 22.632 125.531 22.988 124.011 22.988H120.555ZM136.703 22.988C135.295 22.988 134.231 22.684 133.511 22.076C132.799 21.468 132.395 20.516 132.299 19.22C132.283 18.972 132.343 18.78 132.479 18.644C132.615 18.508 132.803 18.44 133.043 18.44C133.283 18.44 133.463 18.504 133.583 18.632C133.711 18.76 133.791 18.944 133.823 19.184C133.879 20.04 134.123 20.636 134.555 20.972C134.987 21.308 135.703 21.476 136.703 21.476H140.159C141.263 21.476 142.023 21.268 142.439 20.852C142.863 20.428 143.075 19.672 143.075 18.584C143.075 17.48 142.859 16.72 142.427 16.304C142.003 15.88 141.247 15.668 140.159 15.668H136.979C135.531 15.668 134.467 15.328 133.787 14.648C133.107 13.96 132.767 12.896 132.767 11.456C132.767 10.016 133.103 8.96 133.775 8.288C134.455 7.608 135.515 7.268 136.955 7.268H140.147C141.467 7.268 142.463 7.556 143.135 8.132C143.815 8.7 144.203 9.592 144.299 10.808C144.323 11.048 144.267 11.24 144.131 11.384C143.995 11.52 143.803 11.588 143.555 11.588C143.323 11.588 143.143 11.524 143.015 11.396C142.887 11.26 142.811 11.076 142.787 10.844C142.723 10.068 142.491 9.532 142.091 9.236C141.691 8.932 141.043 8.78 140.147 8.78H136.955C135.931 8.78 135.227 8.976 134.843 9.368C134.467 9.752 134.279 10.448 134.279 11.456C134.279 12.464 134.471 13.168 134.855 13.568C135.247 13.96 135.955 14.156 136.979 14.156H140.159C141.671 14.156 142.787 14.516 143.507 15.236C144.227 15.948 144.587 17.064 144.587 18.584C144.587 20.096 144.227 21.208 143.507 21.92C142.795 22.632 141.679 22.988 140.159 22.988H136.703Z" fill="#CADFDF"/>
<path d="M187.336 22.988C185.928 22.988 184.864 22.684 184.144 22.076C183.432 21.468 183.028 20.516 182.932 19.22C182.916 18.972 182.976 18.78 183.112 18.644C183.248 18.508 183.436 18.44 183.676 18.44C183.916 18.44 184.096 18.504 184.216 18.632C184.344 18.76 184.424 18.944 184.456 19.184C184.512 20.04 184.756 20.636 185.188 20.972C185.62 21.308 186.336 21.476 187.336 21.476H190.792C191.896 21.476 192.656 21.268 193.072 20.852C193.496 20.428 193.708 19.672 193.708 18.584C193.708 17.48 193.492 16.72 193.06 16.304C192.636 15.88 191.88 15.668 190.792 15.668H187.612C186.164 15.668 185.1 15.328 184.42 14.648C183.74 13.96 183.4 12.896 183.4 11.456C183.4 10.016 183.736 8.96 184.408 8.288C185.088 7.608 186.148 7.268 187.588 7.268H190.78C192.1 7.268 193.096 7.556 193.768 8.132C194.448 8.7 194.836 9.592 194.932 10.808C194.956 11.048 194.9 11.24 194.764 11.384C194.628 11.52 194.436 11.588 194.188 11.588C193.956 11.588 193.776 11.524 193.648 11.396C193.52 11.26 193.444 11.076 193.42 10.844C193.356 10.068 193.124 9.532 192.724 9.236C192.324 8.932 191.676 8.78 190.78 8.78H187.588C186.564 8.78 185.86 8.976 185.476 9.368C185.1 9.752 184.912 10.448 184.912 11.456C184.912 12.464 185.104 13.168 185.488 13.568C185.88 13.96 186.588 14.156 187.612 14.156H190.792C192.304 14.156 193.42 14.516 194.14 15.236C194.86 15.948 195.22 17.064 195.22 18.584C195.22 20.096 194.86 21.208 194.14 21.92C193.428 22.632 192.312 22.988 190.792 22.988H187.336ZM204.192 23C202.424 23 201.128 22.588 200.304 21.764C199.48 20.94 199.068 19.644 199.068 17.876V12.392C199.068 10.608 199.48 9.308 200.304 8.492C201.128 7.668 202.416 7.26 204.168 7.268H207.072C208.56 7.268 209.676 7.576 210.42 8.192C211.164 8.8 211.58 9.78 211.668 11.132C211.7 11.38 211.652 11.572 211.524 11.708C211.396 11.844 211.204 11.912 210.948 11.912C210.484 11.912 210.22 11.66 210.156 11.156C210.092 10.244 209.824 9.62 209.352 9.284C208.888 8.948 208.128 8.78 207.072 8.78H204.168C203.272 8.772 202.564 8.88 202.044 9.104C201.524 9.328 201.148 9.704 200.916 10.232C200.692 10.76 200.58 11.48 200.58 12.392V17.876C200.58 18.772 200.692 19.484 200.916 20.012C201.148 20.54 201.528 20.92 202.056 21.152C202.584 21.376 203.296 21.488 204.192 21.488H207.072C208.128 21.488 208.888 21.32 209.352 20.984C209.824 20.64 210.092 20.016 210.156 19.112C210.22 18.608 210.484 18.356 210.948 18.356C211.204 18.356 211.396 18.424 211.524 18.56C211.652 18.688 211.7 18.88 211.668 19.136C211.58 20.48 211.164 21.46 210.42 22.076C209.676 22.692 208.56 23 207.072 23H204.192ZM219.703 22.988C218.295 22.988 217.231 22.684 216.511 22.076C215.799 21.468 215.395 20.516 215.299 19.22C215.283 18.972 215.343 18.78 215.479 18.644C215.615 18.508 215.803 18.44 216.043 18.44C216.283 18.44 216.463 18.504 216.583 18.632C216.711 18.76 216.791 18.944 216.823 19.184C216.879 20.04 217.123 20.636 217.555 20.972C217.987 21.308 218.703 21.476 219.703 21.476H223.159C224.263 21.476 225.023 21.268 225.439 20.852C225.863 20.428 226.075 19.672 226.075 18.584C226.075 17.48 225.859 16.72 225.427 16.304C225.003 15.88 224.247 15.668 223.159 15.668H219.979C218.531 15.668 217.467 15.328 216.787 14.648C216.107 13.96 215.767 12.896 215.767 11.456C215.767 10.016 216.103 8.96 216.775 8.288C217.455 7.608 218.515 7.268 219.955 7.268H223.147C224.467 7.268 225.463 7.556 226.135 8.132C226.815 8.7 227.203 9.592 227.299 10.808C227.323 11.048 227.267 11.24 227.131 11.384C226.995 11.52 226.803 11.588 226.555 11.588C226.323 11.588 226.143 11.524 226.015 11.396C225.887 11.26 225.811 11.076 225.787 10.844C225.723 10.068 225.491 9.532 225.091 9.236C224.691 8.932 224.043 8.78 223.147 8.78H219.955C218.931 8.78 218.227 8.976 217.843 9.368C217.467 9.752 217.279 10.448 217.279 11.456C217.279 12.464 217.471 13.168 217.855 13.568C218.247 13.96 218.955 14.156 219.979 14.156H223.159C224.671 14.156 225.787 14.516 226.507 15.236C227.227 15.948 227.587 17.064 227.587 18.584C227.587 20.096 227.227 21.208 226.507 21.92C225.795 22.632 224.679 22.988 223.159 22.988H219.703ZM235.852 22.988C234.444 22.988 233.38 22.684 232.66 22.076C231.948 21.468 231.544 20.516 231.448 19.22C231.432 18.972 231.492 18.78 231.628 18.644C231.764 18.508 231.952 18.44 232.192 18.44C232.432 18.44 232.612 18.504 232.732 18.632C232.86 18.76 232.94 18.944 232.972 19.184C233.028 20.04 233.272 20.636 233.704 20.972C234.136 21.308 234.852 21.476 235.852 21.476H239.308C240.412 21.476 241.172 21.268 241.588 20.852C242.012 20.428 242.224 19.672 242.224 18.584C242.224 17.48 242.008 16.72 241.576 16.304C241.152 15.88 240.396 15.668 239.308 15.668H236.128C234.68 15.668 233.616 15.328 232.936 14.648C232.256 13.96 231.916 12.896 231.916 11.456C231.916 10.016 232.252 8.96 232.924 8.288C233.604 7.608 234.664 7.268 236.104 7.268H239.296C240.616 7.268 241.612 7.556 242.284 8.132C242.964 8.7 243.352 9.592 243.448 10.808C243.472 11.048 243.416 11.24 243.28 11.384C243.144 11.52 242.952 11.588 242.704 11.588C242.472 11.588 242.292 11.524 242.164 11.396C242.036 11.26 241.96 11.076 241.936 10.844C241.872 10.068 241.64 9.532 241.24 9.236C240.84 8.932 240.192 8.78 239.296 8.78H236.104C235.08 8.78 234.376 8.976 233.992 9.368C233.616 9.752 233.428 10.448 233.428 11.456C233.428 12.464 233.62 13.168 234.004 13.568C234.396 13.96 235.104 14.156 236.128 14.156H239.308C240.82 14.156 241.936 14.516 242.656 15.236C243.376 15.948 243.736 17.064 243.736 18.584C243.736 20.096 243.376 21.208 242.656 21.92C241.944 22.632 240.828 22.988 239.308 22.988H235.852Z" fill="#CADFDF"/>
<path d="M283.084 23C282.58 23 282.328 22.748 282.328 22.244V8.024C282.328 7.52 282.58 7.268 283.084 7.268H288.7C290.1 7.268 291.164 7.632 291.892 8.36C292.62 9.088 292.984 10.152 292.984 11.552V12.272C292.984 13.664 292.62 14.728 291.892 15.464C291.164 16.192 290.1 16.556 288.7 16.556H283.84V22.244C283.84 22.748 283.588 23 283.084 23ZM283.84 15.044H288.7C289.684 15.044 290.392 14.828 290.824 14.396C291.256 13.956 291.472 13.248 291.472 12.272V11.552C291.472 10.576 291.256 9.872 290.824 9.44C290.392 9 289.684 8.78 288.7 8.78H283.84V15.044ZM305.851 11.384C306.355 11.384 306.607 11.636 306.607 12.14V22.244C306.607 22.748 306.355 23 305.851 23C305.347 23 305.095 22.748 305.095 22.244V21.356C304.303 22.452 302.971 23 301.099 23H300.427C298.891 23 297.763 22.644 297.043 21.932C296.331 21.212 295.975 20.084 295.975 18.548V12.14C295.975 11.636 296.227 11.384 296.731 11.384C297.235 11.384 297.487 11.636 297.487 12.14V18.548C297.487 19.66 297.699 20.428 298.123 20.852C298.555 21.276 299.323 21.488 300.427 21.488H301.099C302.243 21.488 303.171 21.32 303.883 20.984C304.595 20.648 304.999 20.124 305.095 19.412V12.14C305.095 11.636 305.347 11.384 305.851 11.384ZM314.069 27.8C313.117 27.8 312.385 27.604 311.873 27.212C311.361 26.82 311.045 26.216 310.925 25.4C310.893 25.144 310.941 24.944 311.069 24.8C311.205 24.664 311.401 24.596 311.657 24.596C311.897 24.596 312.073 24.656 312.185 24.776C312.297 24.904 312.381 25.092 312.437 25.34C312.509 25.7 312.669 25.948 312.917 26.084C313.165 26.22 313.549 26.288 314.069 26.288H318.533C319.205 26.288 319.653 26.172 319.877 25.94C320.109 25.708 320.225 25.26 320.225 24.596V21.368C319.841 21.904 319.317 22.312 318.653 22.592C317.997 22.864 317.189 23 316.229 23H315.317C313.789 23 312.665 22.64 311.945 21.92C311.225 21.2 310.865 20.084 310.865 18.572V15.836C310.865 14.292 311.221 13.164 311.933 12.452C312.653 11.74 313.781 11.384 315.317 11.384H317.285C317.997 11.384 318.593 11.484 319.073 11.684C319.553 11.876 319.937 12.176 320.225 12.584V12.14C320.225 11.636 320.477 11.384 320.981 11.384C321.485 11.384 321.737 11.636 321.737 12.14V24.596C321.737 25.692 321.477 26.5 320.957 27.02C320.445 27.54 319.637 27.8 318.533 27.8H314.069ZM315.317 21.488H316.229C317.413 21.488 318.373 21.312 319.109 20.96C319.853 20.608 320.225 20.072 320.225 19.352V15.08C320.225 14.264 319.977 13.696 319.481 13.376C318.993 13.056 318.261 12.896 317.285 12.896H315.317C314.213 12.896 313.445 13.104 313.013 13.52C312.589 13.936 312.377 14.708 312.377 15.836V18.572C312.377 19.66 312.589 20.42 313.013 20.852C313.445 21.276 314.213 21.488 315.317 21.488Z" fill="#CADFDF"/>
<path d="M363.28 23C361.8 23 360.688 22.692 359.944 22.076C359.2 21.46 358.776 20.484 358.672 19.148C358.656 18.892 358.712 18.696 358.84 18.56C358.968 18.424 359.156 18.356 359.404 18.356C359.876 18.356 360.136 18.608 360.184 19.112C360.256 20.016 360.524 20.64 360.988 20.984C361.46 21.32 362.224 21.488 363.28 21.488H364.6C365.4 21.488 366.028 21.392 366.484 21.2C366.94 21.008 367.26 20.688 367.444 20.24C367.636 19.784 367.732 19.156 367.732 18.356V8.024C367.732 7.52 367.984 7.268 368.488 7.268C368.992 7.268 369.244 7.52 369.244 8.024V18.356C369.244 19.972 368.872 21.152 368.128 21.896C367.392 22.632 366.216 23 364.6 23H363.28ZM376.804 23C375.532 23 374.592 22.696 373.984 22.088C373.376 21.48 373.072 20.54 373.072 19.268C373.072 17.988 373.376 17.044 373.984 16.436C374.592 15.828 375.532 15.524 376.804 15.524H382.144C382.112 14.54 381.876 13.856 381.436 13.472C381.004 13.088 380.26 12.896 379.204 12.896H377.812C376.868 12.896 376.172 12.988 375.724 13.172C375.284 13.348 375 13.656 374.872 14.096C374.792 14.336 374.692 14.512 374.572 14.624C374.46 14.728 374.288 14.78 374.056 14.78C373.808 14.78 373.612 14.712 373.468 14.576C373.332 14.432 373.284 14.24 373.324 14C373.476 13.088 373.92 12.424 374.656 12.008C375.392 11.592 376.444 11.384 377.812 11.384H379.204C380.74 11.384 381.864 11.744 382.576 12.464C383.296 13.176 383.656 14.3 383.656 15.836V22.244C383.656 22.748 383.404 23 382.9 23C382.396 23 382.144 22.748 382.144 22.244V21.26C381.352 22.42 380.02 23 378.148 23H376.804ZM376.804 21.488H378.148C378.868 21.488 379.508 21.412 380.068 21.26C380.636 21.108 381.1 20.856 381.46 20.504C381.828 20.152 382.056 19.676 382.144 19.076V17.036H376.804C375.948 17.036 375.364 17.192 375.052 17.504C374.74 17.816 374.584 18.404 374.584 19.268C374.584 20.124 374.74 20.708 375.052 21.02C375.364 21.332 375.948 21.488 376.804 21.488ZM392.332 22.436C392.244 22.644 392.124 22.792 391.972 22.88C391.828 22.96 391.648 23 391.432 23C391.032 23 390.748 22.804 390.58 22.412L386.248 12.452C386.048 11.972 386.184 11.644 386.656 11.468C387.112 11.26 387.44 11.392 387.64 11.864L391.876 21.596H391.048L395.596 11.84C395.7 11.624 395.84 11.484 396.016 11.42C396.192 11.348 396.388 11.364 396.604 11.468C397.06 11.676 397.184 12.012 396.976 12.476L392.332 22.436ZM403.312 23C402.04 23 401.1 22.696 400.492 22.088C399.884 21.48 399.58 20.54 399.58 19.268C399.58 17.988 399.884 17.044 400.492 16.436C401.1 15.828 402.04 15.524 403.312 15.524H408.652C408.62 14.54 408.384 13.856 407.944 13.472C407.512 13.088 406.768 12.896 405.712 12.896H404.32C403.376 12.896 402.68 12.988 402.232 13.172C401.792 13.348 401.508 13.656 401.38 14.096C401.3 14.336 401.2 14.512 401.08 14.624C400.968 14.728 400.796 14.78 400.564 14.78C400.316 14.78 400.12 14.712 399.976 14.576C399.84 14.432 399.792 14.24 399.832 14C399.984 13.088 400.428 12.424 401.164 12.008C401.9 11.592 402.952 11.384 404.32 11.384H405.712C407.248 11.384 408.372 11.744 409.084 12.464C409.804 13.176 410.164 14.3 410.164 15.836V22.244C410.164 22.748 409.912 23 409.408 23C408.904 23 408.652 22.748 408.652 22.244V21.26C407.86 22.42 406.528 23 404.656 23H403.312ZM403.312 21.488H404.656C405.376 21.488 406.016 21.412 406.576 21.26C407.144 21.108 407.608 20.856 407.968 20.504C408.336 20.152 408.564 19.676 408.652 19.076V17.036H403.312C402.456 17.036 401.872 17.192 401.56 17.504C401.248 17.816 401.092 18.404 401.092 19.268C401.092 20.124 401.248 20.708 401.56 21.02C401.872 21.332 402.456 21.488 403.312 21.488ZM418.594 22.988C417.186 22.988 416.122 22.684 415.402 22.076C414.69 21.468 414.286 20.516 414.19 19.22C414.174 18.972 414.234 18.78 414.37 18.644C414.506 18.508 414.694 18.44 414.934 18.44C415.174 18.44 415.354 18.504 415.474 18.632C415.602 18.76 415.682 18.944 415.714 19.184C415.77 20.04 416.014 20.636 416.446 20.972C416.878 21.308 417.594 21.476 418.594 21.476H422.05C423.154 21.476 423.914 21.268 424.33 20.852C424.754 20.428 424.966 19.672 424.966 18.584C424.966 17.48 424.75 16.72 424.318 16.304C423.894 15.88 423.138 15.668 422.05 15.668H418.87C417.422 15.668 416.358 15.328 415.678 14.648C414.998 13.96 414.658 12.896 414.658 11.456C414.658 10.016 414.994 8.96 415.666 8.288C416.346 7.608 417.406 7.268 418.846 7.268H422.038C423.358 7.268 424.354 7.556 425.026 8.132C425.706 8.7 426.094 9.592 426.19 10.808C426.214 11.048 426.158 11.24 426.022 11.384C425.886 11.52 425.694 11.588 425.446 11.588C425.214 11.588 425.034 11.524 424.906 11.396C424.778 11.26 424.702 11.076 424.678 10.844C424.614 10.068 424.382 9.532 423.982 9.236C423.582 8.932 422.934 8.78 422.038 8.78H418.846C417.822 8.78 417.118 8.976 416.734 9.368C416.358 9.752 416.17 10.448 416.17 11.456C416.17 12.464 416.362 13.168 416.746 13.568C417.138 13.96 417.846 14.156 418.87 14.156H422.05C423.562 14.156 424.678 14.516 425.398 15.236C426.118 15.948 426.478 17.064 426.478 18.584C426.478 20.096 426.118 21.208 425.398 21.92C424.686 22.632 423.57 22.988 422.05 22.988H418.594ZM434.778 23C433.25 23 432.126 22.64 431.406 21.92C430.686 21.2 430.326 20.076 430.326 18.548V15.812C430.326 14.276 430.682 13.152 431.394 12.44C432.114 11.72 433.242 11.368 434.778 11.384H436.746C437.93 11.384 438.842 11.584 439.482 11.984C440.122 12.376 440.514 12.996 440.658 13.844C440.706 14.092 440.658 14.288 440.514 14.432C440.378 14.568 440.178 14.636 439.914 14.636C439.682 14.636 439.51 14.576 439.398 14.456C439.286 14.328 439.194 14.156 439.122 13.94C439.026 13.556 438.794 13.288 438.426 13.136C438.066 12.976 437.506 12.896 436.746 12.896H434.778C433.674 12.88 432.906 13.084 432.474 13.508C432.05 13.924 431.838 14.692 431.838 15.812V18.548C431.838 19.652 432.05 20.42 432.474 20.852C432.906 21.276 433.674 21.488 434.778 21.488H436.746C437.506 21.488 438.066 21.412 438.426 21.26C438.794 21.1 439.026 20.828 439.122 20.444C439.194 20.212 439.286 20.04 439.398 19.928C439.518 19.808 439.694 19.748 439.926 19.748C440.182 19.748 440.378 19.816 440.514 19.952C440.658 20.088 440.706 20.284 440.658 20.54C440.514 21.372 440.122 21.992 439.482 22.4C438.842 22.8 437.93 23 436.746 23H434.778ZM445.436 23C444.932 23 444.68 22.748 444.68 22.244V12.14C444.68 11.636 444.932 11.384 445.436 11.384C445.94 11.384 446.192 11.636 446.192 12.14V13.676C446.632 12.932 447.236 12.364 448.004 11.972C448.772 11.58 449.672 11.384 450.704 11.384C451.208 11.384 451.46 11.636 451.46 12.14C451.46 12.644 451.208 12.896 450.704 12.896C449.296 12.896 448.208 13.196 447.44 13.796C446.68 14.396 446.264 15.232 446.192 16.304V22.244C446.192 22.748 445.94 23 445.436 23ZM454.881 23C454.377 23 454.125 22.748 454.125 22.244V12.14C454.125 11.636 454.377 11.384 454.881 11.384C455.385 11.384 455.637 11.636 455.637 12.14V22.244C455.637 22.748 455.385 23 454.881 23ZM454.593 9.272C453.969 9.272 453.657 8.956 453.657 8.324V7.724C453.657 7.108 453.969 6.8 454.593 6.8H455.181C455.781 6.8 456.081 7.108 456.081 7.724V8.324C456.081 8.956 455.781 9.272 455.181 9.272H454.593ZM461.045 27.8C460.541 27.8 460.289 27.548 460.289 27.044V12.14C460.289 11.636 460.541 11.384 461.045 11.384C461.549 11.384 461.801 11.636 461.801 12.14V12.944C462.185 12.432 462.705 12.044 463.361 11.78C464.025 11.516 464.837 11.384 465.797 11.384H466.709C468.245 11.384 469.369 11.744 470.081 12.464C470.801 13.176 471.161 14.3 471.161 15.836V18.548C471.161 20.076 470.801 21.2 470.081 21.92C469.369 22.64 468.245 23 466.709 23H461.801V27.044C461.801 27.548 461.549 27.8 461.045 27.8ZM461.801 21.488H466.709C467.821 21.488 468.589 21.276 469.013 20.852C469.437 20.42 469.649 19.652 469.649 18.548V15.836C469.649 14.724 469.437 13.956 469.013 13.532C468.589 13.108 467.821 12.896 466.709 12.896H465.797C464.613 12.896 463.669 13.068 462.965 13.412C462.269 13.756 461.881 14.292 461.801 15.02V21.488ZM479.737 23C478.225 23 477.117 22.648 476.413 21.944C475.709 21.24 475.357 20.14 475.357 18.644V12.896H474.013C473.509 12.896 473.257 12.644 473.257 12.14C473.257 11.636 473.509 11.384 474.013 11.384H475.357V9.08C475.357 8.576 475.609 8.324 476.113 8.324C476.617 8.324 476.869 8.576 476.869 9.08V11.384H479.797C480.301 11.384 480.553 11.636 480.553 12.14C480.553 12.644 480.301 12.896 479.797 12.896H476.869V18.644C476.869 19.724 477.077 20.468 477.493 20.876C477.909 21.284 478.657 21.488 479.737 21.488C480.001 21.488 480.193 21.552 480.313 21.68C480.441 21.8 480.505 21.988 480.505 22.244C480.505 22.748 480.249 23 479.737 23Z" fill="#CADFDF"/>
<path d="M528.792 23.036C528.592 23.156 528.4 23.192 528.216 23.144C528.04 23.104 527.888 22.988 527.76 22.796L523.896 16.556H519.84V22.244C519.84 22.748 519.588 23 519.084 23C518.58 23 518.328 22.748 518.328 22.244V8.024C518.328 7.52 518.58 7.268 519.084 7.268H524.7C526.1 7.268 527.164 7.632 527.892 8.36C528.62 9.088 528.984 10.152 528.984 11.552V12.272C528.984 13.496 528.7 14.464 528.132 15.176C527.572 15.888 526.744 16.324 525.648 16.484L529.056 22.004C529.304 22.428 529.216 22.772 528.792 23.036ZM519.84 15.044H524.7C525.684 15.044 526.392 14.828 526.824 14.396C527.256 13.956 527.472 13.248 527.472 12.272V11.552C527.472 10.576 527.256 9.872 526.824 9.44C526.392 9 525.684 8.78 524.7 8.78H519.84V15.044ZM533.916 17.792V18.572C533.916 19.668 534.128 20.428 534.552 20.852C534.984 21.276 535.752 21.488 536.856 21.488H538.824C539.776 21.488 540.468 21.376 540.9 21.152C541.34 20.928 541.608 20.54 541.704 19.988C541.76 19.748 541.848 19.568 541.968 19.448C542.088 19.328 542.268 19.268 542.508 19.268C542.756 19.268 542.944 19.336 543.072 19.472C543.208 19.6 543.256 19.792 543.216 20.048C543.088 21.048 542.66 21.792 541.932 22.28C541.212 22.76 540.176 23 538.824 23H536.856C535.328 23 534.204 22.64 533.484 21.92C532.764 21.2 532.404 20.084 532.404 18.572V15.836C532.404 14.284 532.764 13.152 533.484 12.44C534.204 11.72 535.328 11.368 536.856 11.384H538.824C540.36 11.384 541.484 11.744 542.196 12.464C542.916 13.176 543.276 14.3 543.276 15.836V17.036C543.276 17.54 543.024 17.792 542.52 17.792H533.916ZM536.856 12.896C535.752 12.88 534.984 13.084 534.552 13.508C534.128 13.932 533.916 14.708 533.916 15.836V16.28H541.764V15.836C541.764 14.724 541.552 13.956 541.128 13.532C540.704 13.108 539.936 12.896 538.824 12.896H536.856ZM551.023 23C549.751 23 548.811 22.696 548.203 22.088C547.595 21.48 547.291 20.54 547.291 19.268C547.291 17.988 547.595 17.044 548.203 16.436C548.811 15.828 549.751 15.524 551.023 15.524H556.363C556.331 14.54 556.095 13.856 555.655 13.472C555.223 13.088 554.479 12.896 553.423 12.896H552.031C551.087 12.896 550.391 12.988 549.943 13.172C549.503 13.348 549.219 13.656 549.091 14.096C549.011 14.336 548.911 14.512 548.791 14.624C548.679 14.728 548.507 14.78 548.275 14.78C548.027 14.78 547.831 14.712 547.687 14.576C547.551 14.432 547.503 14.24 547.543 14C547.695 13.088 548.139 12.424 548.875 12.008C549.611 11.592 550.663 11.384 552.031 11.384H553.423C554.959 11.384 556.083 11.744 556.795 12.464C557.515 13.176 557.875 14.3 557.875 15.836V22.244C557.875 22.748 557.623 23 557.119 23C556.615 23 556.363 22.748 556.363 22.244V21.26C555.571 22.42 554.239 23 552.367 23H551.023ZM551.023 21.488H552.367C553.087 21.488 553.727 21.412 554.287 21.26C554.855 21.108 555.319 20.856 555.679 20.504C556.047 20.152 556.275 19.676 556.363 19.076V17.036H551.023C550.167 17.036 549.583 17.192 549.271 17.504C548.959 17.816 548.803 18.404 548.803 19.268C548.803 20.124 548.959 20.708 549.271 21.02C549.583 21.332 550.167 21.488 551.023 21.488ZM566.341 23C564.813 23 563.689 22.64 562.969 21.92C562.249 21.2 561.889 20.076 561.889 18.548V15.812C561.889 14.276 562.245 13.152 562.957 12.44C563.677 11.72 564.805 11.368 566.341 11.384H568.309C569.493 11.384 570.405 11.584 571.045 11.984C571.685 12.376 572.077 12.996 572.221 13.844C572.269 14.092 572.221 14.288 572.077 14.432C571.941 14.568 571.741 14.636 571.477 14.636C571.245 14.636 571.073 14.576 570.961 14.456C570.849 14.328 570.757 14.156 570.685 13.94C570.589 13.556 570.357 13.288 569.989 13.136C569.629 12.976 569.069 12.896 568.309 12.896H566.341C565.237 12.88 564.469 13.084 564.037 13.508C563.613 13.924 563.401 14.692 563.401 15.812V18.548C563.401 19.652 563.613 20.42 564.037 20.852C564.469 21.276 565.237 21.488 566.341 21.488H568.309C569.069 21.488 569.629 21.412 569.989 21.26C570.357 21.1 570.589 20.828 570.685 20.444C570.757 20.212 570.849 20.04 570.961 19.928C571.081 19.808 571.257 19.748 571.489 19.748C571.745 19.748 571.941 19.816 572.077 19.952C572.221 20.088 572.269 20.284 572.221 20.54C572.077 21.372 571.685 21.992 571.045 22.4C570.405 22.8 569.493 23 568.309 23H566.341ZM581.042 23C579.53 23 578.422 22.648 577.718 21.944C577.014 21.24 576.662 20.14 576.662 18.644V12.896H575.318C574.814 12.896 574.562 12.644 574.562 12.14C574.562 11.636 574.814 11.384 575.318 11.384H576.662V9.08C576.662 8.576 576.914 8.324 577.418 8.324C577.922 8.324 578.174 8.576 578.174 9.08V11.384H581.102C581.606 11.384 581.858 11.636 581.858 12.14C581.858 12.644 581.606 12.896 581.102 12.896H578.174V18.644C578.174 19.724 578.382 20.468 578.798 20.876C579.214 21.284 579.962 21.488 581.042 21.488C581.306 21.488 581.498 21.552 581.618 21.68C581.746 21.8 581.81 21.988 581.81 22.244C581.81 22.748 581.554 23 581.042 23Z" fill="#CADFDF"/>
<path d="M630.792 23.036C630.592 23.156 630.4 23.192 630.216 23.144C630.04 23.104 629.888 22.988 629.76 22.796L625.896 16.556H621.84V22.244C621.84 22.748 621.588 23 621.084 23C620.58 23 620.328 22.748 620.328 22.244V8.024C620.328 7.52 620.58 7.268 621.084 7.268H626.7C628.1 7.268 629.164 7.632 629.892 8.36C630.62 9.088 630.984 10.152 630.984 11.552V12.272C630.984 13.496 630.7 14.464 630.132 15.176C629.572 15.888 628.744 16.324 627.648 16.484L631.056 22.004C631.304 22.428 631.216 22.772 630.792 23.036ZM621.84 15.044H626.7C627.684 15.044 628.392 14.828 628.824 14.396C629.256 13.956 629.472 13.248 629.472 12.272V11.552C629.472 10.576 629.256 9.872 628.824 9.44C628.392 9 627.684 8.78 626.7 8.78H621.84V15.044ZM635.916 17.792V18.572C635.916 19.668 636.128 20.428 636.552 20.852C636.984 21.276 637.752 21.488 638.856 21.488H640.824C641.776 21.488 642.468 21.376 642.9 21.152C643.34 20.928 643.608 20.54 643.704 19.988C643.76 19.748 643.848 19.568 643.968 19.448C644.088 19.328 644.268 19.268 644.508 19.268C644.756 19.268 644.944 19.336 645.072 19.472C645.208 19.6 645.256 19.792 645.216 20.048C645.088 21.048 644.66 21.792 643.932 22.28C643.212 22.76 642.176 23 640.824 23H638.856C637.328 23 636.204 22.64 635.484 21.92C634.764 21.2 634.404 20.084 634.404 18.572V15.836C634.404 14.284 634.764 13.152 635.484 12.44C636.204 11.72 637.328 11.368 638.856 11.384H640.824C642.36 11.384 643.484 11.744 644.196 12.464C644.916 13.176 645.276 14.3 645.276 15.836V17.036C645.276 17.54 645.024 17.792 644.52 17.792H635.916ZM638.856 12.896C637.752 12.88 636.984 13.084 636.552 13.508C636.128 13.932 635.916 14.708 635.916 15.836V16.28H643.764V15.836C643.764 14.724 643.552 13.956 643.128 13.532C642.704 13.108 641.936 12.896 640.824 12.896H638.856ZM653.575 23C652.047 23 650.923 22.64 650.203 21.92C649.483 21.2 649.123 20.076 649.123 18.548V15.836C649.123 14.3 649.483 13.176 650.203 12.464C650.923 11.744 652.047 11.384 653.575 11.384H658.483V7.028C658.483 6.524 658.735 6.272 659.239 6.272C659.743 6.272 659.995 6.524 659.995 7.028V22.244C659.995 22.748 659.743 23 659.239 23C658.735 23 658.483 22.748 658.483 22.244V21.5C658.131 21.988 657.631 22.36 656.983 22.616C656.335 22.872 655.503 23 654.487 23H653.575ZM653.575 21.488H654.487C655.671 21.488 656.631 21.312 657.367 20.96C658.111 20.6 658.483 20.064 658.483 19.352V12.896H653.575C652.471 12.896 651.703 13.112 651.271 13.544C650.847 13.968 650.635 14.732 650.635 15.836V18.548C650.635 19.652 650.847 20.42 651.271 20.852C651.703 21.276 652.471 21.488 653.575 21.488ZM674.062 11.384C674.566 11.384 674.818 11.636 674.818 12.14V22.244C674.818 22.748 674.566 23 674.062 23C673.558 23 673.306 22.748 673.306 22.244V21.356C672.514 22.452 671.182 23 669.31 23H668.638C667.102 23 665.974 22.644 665.254 21.932C664.542 21.212 664.186 20.084 664.186 18.548V12.14C664.186 11.636 664.438 11.384 664.942 11.384C665.446 11.384 665.698 11.636 665.698 12.14V18.548C665.698 19.66 665.91 20.428 666.334 20.852C666.766 21.276 667.534 21.488 668.638 21.488H669.31C670.454 21.488 671.382 21.32 672.094 20.984C672.806 20.648 673.21 20.124 673.306 19.412V12.14C673.306 11.636 673.558 11.384 674.062 11.384ZM678.68 22.808C678.288 22.496 678.24 22.14 678.536 21.74L682.244 16.88L678.944 12.632C678.632 12.24 678.676 11.888 679.076 11.576C679.476 11.264 679.828 11.308 680.132 11.708L683.312 15.8L686.552 11.708C686.864 11.292 687.22 11.248 687.62 11.576C688.02 11.88 688.064 12.232 687.752 12.632L684.248 17.024L687.896 21.74C688.208 22.14 688.168 22.492 687.776 22.796C687.376 23.116 687.02 23.072 686.708 22.664L683.204 18.128L679.736 22.652C679.432 23.06 679.08 23.112 678.68 22.808Z" fill="#CADFDF"/>
<path d="M730.996 23.012C730.756 23.012 730.568 22.948 730.432 22.82C730.304 22.684 730.24 22.496 730.24 22.256V8.78H725.284C725.044 8.78 724.856 8.716 724.72 8.588C724.592 8.452 724.528 8.264 724.528 8.024C724.528 7.784 724.592 7.6 724.72 7.472C724.856 7.336 725.044 7.268 725.284 7.268H736.708C736.948 7.268 737.132 7.336 737.26 7.472C737.396 7.6 737.464 7.784 737.464 8.024C737.464 8.264 737.396 8.452 737.26 8.588C737.132 8.716 736.948 8.78 736.708 8.78H731.752V22.256C731.752 22.488 731.684 22.672 731.548 22.808C731.42 22.944 731.236 23.012 730.996 23.012ZM740.648 27.8C739.56 27.8 738.752 27.536 738.224 27.008C737.704 26.48 737.444 25.668 737.444 24.572C737.444 24.068 737.696 23.816 738.2 23.816C738.704 23.816 738.956 24.068 738.956 24.572C738.956 25.244 739.072 25.696 739.304 25.928C739.536 26.168 739.984 26.288 740.648 26.288H744.968C745.632 26.288 746.08 26.168 746.312 25.928C746.544 25.696 746.66 25.244 746.66 24.572V21.356C746.204 21.996 745.64 22.432 744.968 22.664C744.296 22.896 743.528 23.012 742.664 23.012H741.824C740.312 23.012 739.204 22.66 738.5 21.956C737.796 21.252 737.444 20.152 737.444 18.656V12.128C737.444 11.624 737.696 11.372 738.2 11.372C738.704 11.372 738.956 11.624 738.956 12.128V18.656C738.956 19.736 739.16 20.48 739.568 20.888C739.984 21.296 740.736 21.5 741.824 21.5H742.664C744.04 21.5 745.048 21.264 745.688 20.792C746.336 20.32 746.66 19.608 746.66 18.656V12.128C746.66 11.624 746.912 11.372 747.416 11.372C747.92 11.372 748.172 11.624 748.172 12.128V24.572C748.172 25.668 747.908 26.48 747.38 27.008C746.86 27.536 746.056 27.8 744.968 27.8H740.648ZM753.592 27.8C753.088 27.8 752.836 27.548 752.836 27.044V12.14C752.836 11.636 753.088 11.384 753.592 11.384C754.096 11.384 754.348 11.636 754.348 12.14V12.944C754.732 12.432 755.252 12.044 755.908 11.78C756.572 11.516 757.384 11.384 758.344 11.384H759.256C760.792 11.384 761.916 11.744 762.628 12.464C763.348 13.176 763.708 14.3 763.708 15.836V18.548C763.708 20.076 763.348 21.2 762.628 21.92C761.916 22.64 760.792 23 759.256 23H754.348V27.044C754.348 27.548 754.096 27.8 753.592 27.8ZM754.348 21.488H759.256C760.368 21.488 761.136 21.276 761.56 20.852C761.984 20.42 762.196 19.652 762.196 18.548V15.836C762.196 14.724 761.984 13.956 761.56 13.532C761.136 13.108 760.368 12.896 759.256 12.896H758.344C757.16 12.896 756.216 13.068 755.512 13.412C754.816 13.756 754.428 14.292 754.348 15.02V21.488ZM769.057 17.792V18.572C769.057 19.668 769.269 20.428 769.693 20.852C770.125 21.276 770.893 21.488 771.997 21.488H773.965C774.917 21.488 775.609 21.376 776.041 21.152C776.481 20.928 776.749 20.54 776.845 19.988C776.901 19.748 776.989 19.568 777.109 19.448C777.229 19.328 777.409 19.268 777.649 19.268C777.897 19.268 778.085 19.336 778.213 19.472C778.349 19.6 778.397 19.792 778.357 20.048C778.229 21.048 777.801 21.792 777.073 22.28C776.353 22.76 775.317 23 773.965 23H771.997C770.469 23 769.345 22.64 768.625 21.92C767.905 21.2 767.545 20.084 767.545 18.572V15.836C767.545 14.284 767.905 13.152 768.625 12.44C769.345 11.72 770.469 11.368 771.997 11.384H773.965C775.501 11.384 776.625 11.744 777.337 12.464C778.057 13.176 778.417 14.3 778.417 15.836V17.036C778.417 17.54 778.165 17.792 777.661 17.792H769.057ZM771.997 12.896C770.893 12.88 770.125 13.084 769.693 13.508C769.269 13.932 769.057 14.708 769.057 15.836V16.28H776.905V15.836C776.905 14.724 776.693 13.956 776.269 13.532C775.845 13.108 775.077 12.896 773.965 12.896H771.997ZM786.68 22.988C785.272 22.988 784.208 22.684 783.488 22.076C782.776 21.468 782.372 20.516 782.276 19.22C782.26 18.972 782.32 18.78 782.456 18.644C782.592 18.508 782.78 18.44 783.02 18.44C783.26 18.44 783.44 18.504 783.56 18.632C783.688 18.76 783.768 18.944 783.8 19.184C783.856 20.04 784.1 20.636 784.532 20.972C784.964 21.308 785.68 21.476 786.68 21.476H790.136C791.24 21.476 792 21.268 792.416 20.852C792.84 20.428 793.052 19.672 793.052 18.584C793.052 17.48 792.836 16.72 792.404 16.304C791.98 15.88 791.224 15.668 790.136 15.668H786.956C785.508 15.668 784.444 15.328 783.764 14.648C783.084 13.96 782.744 12.896 782.744 11.456C782.744 10.016 783.08 8.96 783.752 8.288C784.432 7.608 785.492 7.268 786.932 7.268H790.124C791.444 7.268 792.44 7.556 793.112 8.132C793.792 8.7 794.18 9.592 794.276 10.808C794.3 11.048 794.244 11.24 794.108 11.384C793.972 11.52 793.78 11.588 793.532 11.588C793.3 11.588 793.12 11.524 792.992 11.396C792.864 11.26 792.788 11.076 792.764 10.844C792.7 10.068 792.468 9.532 792.068 9.236C791.668 8.932 791.02 8.78 790.124 8.78H786.932C785.908 8.78 785.204 8.976 784.82 9.368C784.444 9.752 784.256 10.448 784.256 11.456C784.256 12.464 784.448 13.168 784.832 13.568C785.224 13.96 785.932 14.156 786.956 14.156H790.136C791.648 14.156 792.764 14.516 793.484 15.236C794.204 15.948 794.564 17.064 794.564 18.584C794.564 20.096 794.204 21.208 793.484 21.92C792.772 22.632 791.656 22.988 790.136 22.988H786.68ZM802.864 23C801.336 23 800.212 22.64 799.492 21.92C798.772 21.2 798.412 20.076 798.412 18.548V15.812C798.412 14.276 798.768 13.152 799.48 12.44C800.2 11.72 801.328 11.368 802.864 11.384H804.832C806.016 11.384 806.928 11.584 807.568 11.984C808.208 12.376 808.6 12.996 808.744 13.844C808.792 14.092 808.744 14.288 808.6 14.432C808.464 14.568 808.264 14.636 808 14.636C807.768 14.636 807.596 14.576 807.484 14.456C807.372 14.328 807.28 14.156 807.208 13.94C807.112 13.556 806.88 13.288 806.512 13.136C806.152 12.976 805.592 12.896 804.832 12.896H802.864C801.76 12.88 800.992 13.084 800.56 13.508C800.136 13.924 799.924 14.692 799.924 15.812V18.548C799.924 19.652 800.136 20.42 800.56 20.852C800.992 21.276 801.76 21.488 802.864 21.488H804.832C805.592 21.488 806.152 21.412 806.512 21.26C806.88 21.1 807.112 20.828 807.208 20.444C807.28 20.212 807.372 20.04 807.484 19.928C807.604 19.808 807.78 19.748 808.012 19.748C808.268 19.748 808.464 19.816 808.6 19.952C808.744 20.088 808.792 20.284 808.744 20.54C808.6 21.372 808.208 21.992 807.568 22.4C806.928 22.8 806.016 23 804.832 23H802.864ZM813.521 23C813.018 23 812.766 22.748 812.766 22.244V12.14C812.766 11.636 813.018 11.384 813.521 11.384C814.026 11.384 814.278 11.636 814.278 12.14V13.676C814.718 12.932 815.322 12.364 816.09 11.972C816.858 11.58 817.758 11.384 818.79 11.384C819.294 11.384 819.546 11.636 819.546 12.14C819.546 12.644 819.294 12.896 818.79 12.896C817.382 12.896 816.294 13.196 815.526 13.796C814.766 14.396 814.35 15.232 814.278 16.304V22.244C814.278 22.748 814.026 23 813.521 23ZM822.967 23C822.463 23 822.211 22.748 822.211 22.244V12.14C822.211 11.636 822.463 11.384 822.967 11.384C823.471 11.384 823.723 11.636 823.723 12.14V22.244C823.723 22.748 823.471 23 822.967 23ZM822.679 9.272C822.055 9.272 821.743 8.956 821.743 8.324V7.724C821.743 7.108 822.055 6.8 822.679 6.8H823.267C823.867 6.8 824.167 7.108 824.167 7.724V8.324C824.167 8.956 823.867 9.272 823.267 9.272H822.679ZM829.131 27.8C828.627 27.8 828.375 27.548 828.375 27.044V12.14C828.375 11.636 828.627 11.384 829.131 11.384C829.635 11.384 829.887 11.636 829.887 12.14V12.944C830.271 12.432 830.791 12.044 831.447 11.78C832.111 11.516 832.923 11.384 833.883 11.384H834.795C836.331 11.384 837.455 11.744 838.167 12.464C838.887 13.176 839.247 14.3 839.247 15.836V18.548C839.247 20.076 838.887 21.2 838.167 21.92C837.455 22.64 836.331 23 834.795 23H829.887V27.044C829.887 27.548 829.635 27.8 829.131 27.8ZM829.887 21.488H834.795C835.907 21.488 836.675 21.276 837.099 20.852C837.523 20.42 837.735 19.652 837.735 18.548V15.836C837.735 14.724 837.523 13.956 837.099 13.532C836.675 13.108 835.907 12.896 834.795 12.896H833.883C832.699 12.896 831.755 13.068 831.051 13.412C830.355 13.756 829.967 14.292 829.887 15.02V21.488ZM847.823 23C846.311 23 845.203 22.648 844.499 21.944C843.795 21.24 843.443 20.14 843.443 18.644V12.896H842.099C841.595 12.896 841.343 12.644 841.343 12.14C841.343 11.636 841.595 11.384 842.099 11.384H843.443V9.08C843.443 8.576 843.695 8.324 844.199 8.324C844.703 8.324 844.955 8.576 844.955 9.08V11.384H847.883C848.387 11.384 848.639 11.636 848.639 12.14C848.639 12.644 848.387 12.896 847.883 12.896H844.955V18.644C844.955 19.724 845.163 20.468 845.579 20.876C845.995 21.284 846.743 21.488 847.823 21.488C848.087 21.488 848.279 21.552 848.399 21.68C848.527 21.8 848.591 21.988 848.591 22.244C848.591 22.748 848.335 23 847.823 23Z" fill="#CADFDF"/>
<path d="M887.084 23C886.58 23 886.328 22.748 886.328 22.244V8.024C886.328 7.52 886.58 7.268 887.084 7.268H895.796C896.036 7.268 896.22 7.336 896.348 7.472C896.484 7.6 896.552 7.784 896.552 8.024C896.552 8.528 896.3 8.78 895.796 8.78H887.84V14.288H893.096C893.6 14.288 893.852 14.54 893.852 15.044C893.852 15.548 893.6 15.8 893.096 15.8H887.84V22.244C887.84 22.748 887.588 23 887.084 23ZM899.646 23C899.143 23 898.891 22.748 898.891 22.244V12.14C898.891 11.636 899.143 11.384 899.646 11.384C900.151 11.384 900.403 11.636 900.403 12.14V22.244C900.403 22.748 900.151 23 899.646 23ZM899.359 9.272C898.735 9.272 898.423 8.956 898.423 8.324V7.724C898.423 7.108 898.735 6.8 899.359 6.8H899.947C900.547 6.8 900.847 7.108 900.847 7.724V8.324C900.847 8.956 900.547 9.272 899.947 9.272H899.359ZM907.851 27.8C906.899 27.8 906.167 27.604 905.655 27.212C905.143 26.82 904.827 26.216 904.707 25.4C904.675 25.144 904.723 24.944 904.851 24.8C904.987 24.664 905.183 24.596 905.439 24.596C905.679 24.596 905.855 24.656 905.967 24.776C906.079 24.904 906.163 25.092 906.219 25.34C906.291 25.7 906.451 25.948 906.699 26.084C906.947 26.22 907.331 26.288 907.851 26.288H912.315C912.987 26.288 913.435 26.172 913.659 25.94C913.891 25.708 914.007 25.26 914.007 24.596V21.368C913.623 21.904 913.099 22.312 912.435 22.592C911.779 22.864 910.971 23 910.011 23H909.099C907.571 23 906.447 22.64 905.727 21.92C905.007 21.2 904.647 20.084 904.647 18.572V15.836C904.647 14.292 905.003 13.164 905.715 12.452C906.435 11.74 907.563 11.384 909.099 11.384H911.067C911.779 11.384 912.375 11.484 912.855 11.684C913.335 11.876 913.719 12.176 914.007 12.584V12.14C914.007 11.636 914.259 11.384 914.763 11.384C915.267 11.384 915.519 11.636 915.519 12.14V24.596C915.519 25.692 915.259 26.5 914.739 27.02C914.227 27.54 913.419 27.8 912.315 27.8H907.851ZM909.099 21.488H910.011C911.195 21.488 912.155 21.312 912.891 20.96C913.635 20.608 914.007 20.072 914.007 19.352V15.08C914.007 14.264 913.759 13.696 913.263 13.376C912.775 13.056 912.043 12.896 911.067 12.896H909.099C907.995 12.896 907.227 13.104 906.795 13.52C906.371 13.936 906.159 14.708 906.159 15.836V18.572C906.159 19.66 906.371 20.42 906.795 20.852C907.227 21.276 907.995 21.488 909.099 21.488ZM932.849 11.372C934.217 11.372 935.193 11.708 935.777 12.38C936.369 13.052 936.665 14.168 936.665 15.728V22.256C936.665 22.76 936.413 23.012 935.909 23.012C935.405 23.012 935.153 22.76 935.153 22.256V15.728C935.153 14.72 934.973 13.996 934.613 13.556C934.261 13.108 933.673 12.884 932.849 12.884H931.853C930.853 12.884 930.137 13.108 929.705 13.556C929.273 13.996 929.057 14.72 929.057 15.728V22.256C929.057 22.76 928.805 23.012 928.301 23.012C927.797 23.012 927.545 22.76 927.545 22.256V15.728C927.545 14.72 927.365 13.996 927.005 13.556C926.653 13.108 926.065 12.884 925.241 12.884H924.245C923.245 12.884 922.529 13.108 922.097 13.556C921.665 13.996 921.449 14.72 921.449 15.728V22.256C921.449 22.76 921.197 23.012 920.693 23.012C920.189 23.012 919.937 22.76 919.937 22.256V12.14C919.937 11.636 920.189 11.384 920.693 11.384C921.197 11.384 921.449 11.636 921.449 12.14V12.944C921.825 12.384 922.257 11.984 922.745 11.744C923.241 11.496 923.853 11.372 924.581 11.372H925.241C926.129 11.372 926.837 11.516 927.365 11.804C927.901 12.084 928.317 12.548 928.613 13.196C928.981 12.54 929.417 12.072 929.921 11.792C930.425 11.512 931.069 11.372 931.853 11.372H932.849ZM944.125 23C942.853 23 941.913 22.696 941.305 22.088C940.697 21.48 940.393 20.54 940.393 19.268C940.393 17.988 940.697 17.044 941.305 16.436C941.913 15.828 942.853 15.524 944.125 15.524H949.465C949.433 14.54 949.197 13.856 948.757 13.472C948.325 13.088 947.581 12.896 946.525 12.896H945.133C944.189 12.896 943.493 12.988 943.045 13.172C942.605 13.348 942.321 13.656 942.193 14.096C942.113 14.336 942.013 14.512 941.893 14.624C941.781 14.728 941.609 14.78 941.377 14.78C941.129 14.78 940.933 14.712 940.789 14.576C940.653 14.432 940.605 14.24 940.645 14C940.797 13.088 941.241 12.424 941.977 12.008C942.713 11.592 943.765 11.384 945.133 11.384H946.525C948.061 11.384 949.185 11.744 949.897 12.464C950.617 13.176 950.977 14.3 950.977 15.836V22.244C950.977 22.748 950.725 23 950.221 23C949.717 23 949.465 22.748 949.465 22.244V21.26C948.673 22.42 947.341 23 945.469 23H944.125ZM944.125 21.488H945.469C946.189 21.488 946.829 21.412 947.389 21.26C947.957 21.108 948.421 20.856 948.781 20.504C949.149 20.152 949.377 19.676 949.465 19.076V17.036H944.125C943.269 17.036 942.685 17.192 942.373 17.504C942.061 17.816 941.905 18.404 941.905 19.268C941.905 20.124 942.061 20.708 942.373 21.02C942.685 21.332 943.269 21.488 944.125 21.488Z" fill="#CADFDF"/>
</svg>
